<?xml version="1.0" encoding="utf-8"?>
<!-- Generator: Adobe Illustrator 18.1.1, SVG Export Plug-In . SVG Version: 6.00 Build 0)  -->
<svg version="1.1" id="Слой_1" xmlns="http://www.w3.org/2000/svg" xmlns:xlink="http://www.w3.org/1999/xlink" x="0px" y="0px"
	 viewBox="0 0 117 145" enable-background="new 0 0 117 145" xml:space="preserve">
<g>
	<g>
		<path fill-rule="evenodd" clip-rule="evenodd" fill="#FFDECC" d="M46.8,91.6c-25.9,11.4-33.6,17.5-36.7,20.2
			C5.4,116,2.8,131.7,0,145h58.5H117c-2.8-13.3-5.4-29-10.1-33.2c-3.1-2.7-10.5-8.7-36.4-20.1L46.8,91.6z"/>
		<path fill-rule="evenodd" clip-rule="evenodd" fill="#FFDECC" d="M71.1,68.8v28.9c-6.9,8.5-18.2,8.2-25.1,0V68.8
			C45.9,53.2,71.1,53.2,71.1,68.8z"/>
		<path fill-rule="evenodd" clip-rule="evenodd" fill="#F7C5AA" d="M71.1,68.8v19.3c-4.8,3.5-9.3,5.4-12.6,5.4
			c-3.2,0-7.8-2-12.6-5.4V68.8C45.9,53.2,71.1,53.2,71.1,68.8z"/>
		<path fill-rule="evenodd" clip-rule="evenodd" fill="#FFDECC" d="M58.5,17c-42.1,0-27,51.3-24.2,55.3c3,4.5,17.4,16.4,24.2,16.4
			c6.8,0,21.2-11.9,24.2-16.4C85.5,68.3,100.6,17,58.5,17z"/>
		<path fill-rule="evenodd" clip-rule="evenodd" fill="#F7C5AA" d="M45,67.9c3.5,2.8,23.5,2.6,27,0C68.9,82.5,49.1,83,45,67.9z"/>
		<path fill-rule="evenodd" clip-rule="evenodd" fill="#FFFFFF" d="M49.2,70.5c2.4,1.5,16.2,1.4,18.6,0C65.7,78.2,52,78.5,49.2,70.5
			z"/>
		<path fill-rule="evenodd" clip-rule="evenodd" fill="#FFDECC" d="M26.1,48.3c2.2-0.7,5,1.8,6.3,5.6c1.3,3.8,0.5,7.6-1.7,8.3
			c-2.2,0.7-5-1.8-6.3-5.6C23.1,52.8,23.9,49.1,26.1,48.3z"/>
		<path fill-rule="evenodd" clip-rule="evenodd" fill="#FFDECC" d="M90.8,48.3c-2.2-0.7-5,1.8-6.3,5.6c-1.3,3.8-0.5,7.6,1.7,8.3
			c2.2,0.7,5-1.8,6.3-5.6C93.8,52.8,93,49.1,90.8,48.3z"/>
		<path fill-rule="evenodd" clip-rule="evenodd" fill="#FFC65D" d="M35.8,43.6c-2.5,3.1-4.1,5.5-4.6,15.3c-2-12.3-5.4-29.6,2.7-40.7
			c5.5-7.6,33.3-16.6,44.8-3.1c19.3,0.3,10,34.8,8.9,41.7c-0.7-15.8-9.1-14-13.4-25.6C68.4,35.2,56.9,42.6,35.8,43.6z"/>
		<path fill-rule="evenodd" clip-rule="evenodd" fill="#497194" d="M16.3,107.1c-3.2,2.1-5.1,3.6-6.2,4.6C5.4,116,2.8,131.7,0,145
			h58.5H117c-2.8-13.3-5.4-29-10.1-33.2c-2-1.7-5.7-4.8-14.9-9.8C58.5,123.5,21.2,110.1,16.3,107.1z"/>
		<g>
			<path fill-rule="evenodd" clip-rule="evenodd" fill="#688DAD" d="M7.2,116.2h102.6c0.5,1.1,1,2.4,1.5,3.8H5.8
				C6.2,118.7,6.7,117.4,7.2,116.2z"/>
			<path fill-rule="evenodd" clip-rule="evenodd" fill="#688DAD" d="M3.9,126.9h109.3c0.3,1.2,0.6,2.5,0.9,3.8H3
				C3.3,129.4,3.6,128.1,3.9,126.9z"/>
			<path fill-rule="evenodd" clip-rule="evenodd" fill="#688DAD" d="M1.5,137.5h113.9c0.3,1.3,0.5,2.6,0.8,3.8H0.8
				C1,140.1,1.3,138.8,1.5,137.5z"/>
		</g>
		<g>
			<path fill-rule="evenodd" clip-rule="evenodd" fill="#29445C" d="M23.8,145h2c-0.1-9-0.1-15.4-0.1-15.4S24.9,136.3,23.8,145z"/>
			<path fill-rule="evenodd" clip-rule="evenodd" fill="#29445C" d="M93.2,145h-2c0.1-9,0.1-15.4,0.1-15.4S92.1,136.3,93.2,145z"/>
		</g>
		<path fill-rule="evenodd" clip-rule="evenodd" fill="#27557D" d="M70.7,63.2c0.3,0,0.6,0,0.8,0c6.4-0.5,7.9-3.2,8.5-6.6
			c0.7-3.7,0.7-5,1.7-5.3c0.7-0.3,0.9-1.1,0.8-2c-0.1-1-0.1-1.1-1.4-1.5c-1-0.3-6.4-0.8-10.5-0.5v1c3.2-0.2,6.3,0.2,7.2,0.7
			c2.1,1.2,1.7,7.2,0.1,10.2c-1.1,2.1-4.4,3.1-7.3,3.2V63.2z M58.5,49.2c-1.4,0-7.2-1.5-11.4-1.8c-0.3,0-0.5,0-0.8-0.1v1
			c3.3,0.1,6.8,0.8,8,2.5c2,2.7-1.2,9.4-4.3,10.9c-1,0.5-2.3,0.7-3.7,0.7v0.9c5.7,0.1,7.6-3.7,8.2-4.9c1.2-2.3,0.8-5.5,4-5.6
			c3.2,0,2.9,3.1,4.1,5.5c0.6,1.2,2.5,5,8.2,5v-0.9c-1.4,0-2.7-0.2-3.6-0.7c-3.1-1.5-6.4-8.1-4.4-10.8c1.2-1.7,4.7-2.4,8-2.5v-1
			c-0.3,0-0.6,0-0.8,0.1C66.2,47.6,61.8,49.1,58.5,49.2z M46.3,47.3c-4.1-0.2-9.5,0.3-10.5,0.6c-1.3,0.4-1.3,0.5-1.4,1.5
			c-0.1,1,0.1,1.8,0.9,2c1,0.3,1,1.6,1.7,5.3c0.6,3.4,2.1,6,8.5,6.5c0.3,0,0.5,0,0.8,0v-0.9c-2.9,0-6.1-1-7.2-3.1
			c-1.6-3-2.1-8.9,0-10.2c0.9-0.5,4-0.9,7.2-0.8V47.3z"/>
		<rect x="29.5" y="48.1" fill-rule="evenodd" clip-rule="evenodd" fill="#27557D" width="7" height="3"/>
		<rect x="81.8" y="48.1" fill-rule="evenodd" clip-rule="evenodd" fill="#27557D" width="7" height="3"/>
	</g>
</g>
</svg>
