<?xml version="1.0" encoding="utf-8"?>
<!-- Generator: Adobe Illustrator 18.1.1, SVG Export Plug-In . SVG Version: 6.00 Build 0)  -->
<svg version="1.1" id="Слой_1" xmlns="http://www.w3.org/2000/svg" xmlns:xlink="http://www.w3.org/1999/xlink" x="0px" y="0px"
	 viewBox="0 0 117 145" enable-background="new 0 0 117 145" xml:space="preserve">
<g>
	<g>
		<path fill-rule="evenodd" clip-rule="evenodd" fill="#FFDECC" d="M46.8,91.6c-25.9,11.4-33.6,17.5-36.7,20.2
			C5.4,116,2.8,131.7,0,145h58.5H117c-2.8-13.3-5.4-29-10.1-33.2c-3.1-2.7-10.5-8.7-36.4-20.1L46.8,91.6z"/>
		<path fill-rule="evenodd" clip-rule="evenodd" fill="#497194" d="M46.8,91.6c-25.9,11.4-33.6,17.5-36.7,20.2
			C5.4,116,2.8,131.7,0,145h58.5H117c-2.8-13.3-5.4-29-10.1-33.2c-3.1-2.7-10.5-8.7-36.4-20.1L46.8,91.6z"/>
		<path fill-rule="evenodd" clip-rule="evenodd" fill="#FFDECC" d="M71.1,68.8v28.9c-6.9,8.5-18.2,8.2-25.1,0V68.8
			C45.9,53.2,71.1,53.2,71.1,68.8z"/>
		<path fill-rule="evenodd" clip-rule="evenodd" fill="#F7C5AA" d="M71.1,68.8v19.3c-4.8,3.5-9.3,5.4-12.6,5.4
			c-3.2,0-7.8-2-12.6-5.4V68.8C45.9,53.2,71.1,53.2,71.1,68.8z"/>
		<path fill-rule="evenodd" clip-rule="evenodd" fill="#FFDECC" d="M58.5,17c-42.1,0-27,51.3-24.2,55.3c3,4.5,17.4,16.4,24.2,16.4
			s21.2-11.9,24.2-16.4C85.5,68.3,100.6,17,58.5,17z"/>
		<path fill-rule="evenodd" clip-rule="evenodd" fill="#F7C5AA" d="M69.7,73.2c-9.9,0.5-19.6-3.2-25.6-8.6
			C44.5,72.8,63.3,79.2,69.7,73.2z"/>
		<path fill-rule="evenodd" clip-rule="evenodd" fill="#F7C5AA" d="M46.7,63.8c-2.1,0.8-3.7,2.4-4.5,4.1
			C41.8,65.7,45,62.6,46.7,63.8z"/>
		<path fill-rule="evenodd" clip-rule="evenodd" fill="#FFDECC" d="M26.1,50.7c2.2-0.7,5,1.8,6.3,5.6c1.3,3.8,0.5,7.6-1.7,8.3
			c-2.2,0.7-5-1.8-6.3-5.6C23.1,55.1,23.9,51.4,26.1,50.7z"/>
		<path fill-rule="evenodd" clip-rule="evenodd" fill="#FFDECC" d="M90.8,50.7c-2.2-0.7-5,1.8-6.3,5.6c-1.3,3.8-0.5,7.6,1.7,8.3
			c2.2,0.7,5-1.8,6.3-5.6C93.8,55.1,93,51.4,90.8,50.7z"/>
		<path fill-rule="evenodd" clip-rule="evenodd" fill="#FFC65D" d="M39.2,34.2c-2.4,13.4-8.6,12.2-8.1,28c-2-12.3-4.9-28.7,3.4-39.4
			c6.6-8.6,28.6-14.8,42.8-4.4c15.7,3.4,10.8,35.6,8.7,41.7c-1.5-9.9-4.8-14-8.9-25.6C71.5,38.4,46.5,39.4,39.2,34.2z"/>
		<path fill-rule="evenodd" clip-rule="evenodd" fill="#E6E6E6" d="M58.6,103.9c0,0-17.5,4.2-17.5,5.3c0,1.1,6.7,35.8,6.7,35.8h23.8
			l2.7-35.6L58.6,103.9z"/>
		<polygon fill-rule="evenodd" clip-rule="evenodd" fill="#86BCEB" points="45.9,91.9 45.9,97.7 51.4,145 42,145 31.7,123.9 
			41.6,117.3 29.5,111.6 40.6,94.4 		"/>
		<polygon fill-rule="evenodd" clip-rule="evenodd" fill="#86BCEB" points="71.1,92 71.1,97.7 65.5,145 74.9,145 85.2,123.9 
			75.4,117.3 87.4,111.6 77.6,94.9 		"/>
		<path fill-rule="evenodd" clip-rule="evenodd" fill="#FFFFFF" d="M45.9,88.1l-1.1,4.3l3.1,22.4l10.6-10.9L45.9,88.1z"/>
		<path fill-rule="evenodd" clip-rule="evenodd" fill="#9D3421" d="M53.1,109.8l3,4.7c1.6,0,3.1,0,4.7,0l3-4.7l-5.3-5.9L53.1,109.8z
			"/>
		<polygon fill-rule="evenodd" clip-rule="evenodd" fill="#9D3421" points="56.1,114.5 51.8,145 65.2,145 60.9,114.5 		"/>
		<path fill-rule="evenodd" clip-rule="evenodd" fill="#FFFFFF" d="M71.1,88.1l0.9,4.2L69,115l-10.5-11.1L71.1,88.1z"/>
		<g>
			<path fill-rule="evenodd" clip-rule="evenodd" fill="#304D66" d="M23.8,145h2c-0.1-9-0.1-15.4-0.1-15.4S24.9,136.3,23.8,145z"/>
			<path fill-rule="evenodd" clip-rule="evenodd" fill="#304D66" d="M93.2,145h-2c0.1-9,0.1-15.4,0.1-15.4S92.1,136.3,93.2,145z"/>
		</g>
	</g>
</g>
</svg>
