<?xml version="1.0" encoding="utf-8"?>
<!-- Generator: Adobe Illustrator 18.1.1, SVG Export Plug-In . SVG Version: 6.00 Build 0)  -->
<svg version="1.1" id="Слой_1" xmlns="http://www.w3.org/2000/svg" xmlns:xlink="http://www.w3.org/1999/xlink" x="0px" y="0px"
	 viewBox="0 0 117 145" enable-background="new 0 0 117 145" xml:space="preserve">
<g>
	<g>
		<path fill-rule="evenodd" clip-rule="evenodd" fill="#FFDECC" d="M46.8,91.6C20.9,103,13.2,109,10.1,111.8
			C5.4,116,2.8,131.7,0,145h58.5H117c-2.8-13.3-5.4-29-10.1-33.2c-3.1-2.7-10.5-8.7-36.4-20.1L46.8,91.6z"/>
		<path fill-rule="evenodd" clip-rule="evenodd" fill="#FFDECC" d="M72.3,68.8v28.9c-7.6,8.5-20,8.2-27.6,0V68.8
			C44.7,53.2,72.3,53.2,72.3,68.8z"/>
		<path fill-rule="evenodd" clip-rule="evenodd" fill="#F7C5AA" d="M72.3,68.8v19.3c-5.2,3.5-10.3,5.4-13.8,5.4s-8.6-2-13.8-5.4
			V68.8C44.7,53.2,72.3,53.2,72.3,68.8z"/>
		<path fill-rule="evenodd" clip-rule="evenodd" fill="#FFDECC" d="M26.3,44.9c2.2-0.7,5,1.8,6.3,5.6c1.3,3.8,0.5,7.6-1.7,8.3
			c-2.2,0.7-5-1.8-6.3-5.6C23.3,49.4,24.1,45.7,26.3,44.9z"/>
		<path fill-rule="evenodd" clip-rule="evenodd" fill="#FFDECC" d="M91,44.9c-2.2-0.7-5,1.8-6.3,5.6c-1.3,3.8-0.5,7.6,1.7,8.3
			c2.2,0.7,5-1.8,6.3-5.6C94,49.4,93.2,45.7,91,44.9z"/>
		<path fill-rule="evenodd" clip-rule="evenodd" fill="#F7C5AA" d="M44.1,67.9c3.9,2.8,25.8,2.6,29.7,0C70.5,82.5,48.6,83,44.1,67.9
			z"/>
		<path fill-rule="evenodd" clip-rule="evenodd" fill="#86BCEB" d="M37.1,96c-18.2,8.6-24.3,13.4-26.9,15.8C5.4,116,2.8,131.7,0,145
			h58.5H117c-2.8-13.3-5.4-29-10.1-33.2c-2.6-2.3-8.2-6.8-24.9-14.8c-0.1,0.1-0.2,0.2-0.4,0.4c-15.7,17.1-38,8.7-44-0.6
			C37.5,96.5,37.3,96.3,37.1,96z"/>
		<path fill-rule="evenodd" clip-rule="evenodd" fill="#B6DBFC" d="M7.2,116.4c-3,6.7-5,18.4-7.2,28.6h23.7
			C23.2,128.3,23.2,119.4,7.2,116.4z"/>
		<path fill-rule="evenodd" clip-rule="evenodd" fill="#B6DBFC" d="M109.8,116.4c3,6.7,5,18.4,7.2,28.6H93.3
			C93.8,128.3,93.8,119.4,109.8,116.4z"/>
		<path fill-rule="evenodd" clip-rule="evenodd" fill="#B6DBFC" d="M37.1,96c-1.2,0.6-2.3,1.1-3.4,1.6c8.3,11.8,33.6,23.3,51,0.6
			c-0.8-0.4-1.7-0.8-2.6-1.3c-0.1,0.1-0.2,0.2-0.4,0.4c-15.7,17.1-38,8.7-44.1-0.6C37.5,96.5,37.3,96.3,37.1,96z"/>
		<path fill-rule="evenodd" clip-rule="evenodd" fill="#FFDECC" d="M58.5,16.9c-42.1,0-27,51.3-24.2,55.3c3,4.5,17.4,16.4,24.2,16.4
			c6.8,0,21.2-11.9,24.2-16.4C85.5,68.1,100.6,16.9,58.5,16.9z"/>
		<path fill-rule="evenodd" clip-rule="evenodd" fill="#FFFFFF" d="M48.7,70.5c2.7,1.5,17.8,1.4,20.5,0
			C66.9,78.2,51.8,78.5,48.7,70.5z"/>
		<path fill-rule="evenodd" clip-rule="evenodd" fill="#FF690F" d="M105.9,61.3c-6.7-2.5-16.3-16-19.2-28C81,9.7,40.8,9.1,34.6,24.3
			C20.9,36.4,31,68.6,31,60.4c0-8.2,2.5-15.2,6.1-21.3c4.5,9.3,14.5,17.8,25,16.9c-7.2-6.1-11.2-8.7-12.9-18.5
			C54.4,52.2,81.8,67.1,105.9,61.3z"/>
	</g>
</g>
</svg>
