<?xml version="1.0" encoding="utf-8"?>
<!-- Generator: Adobe Illustrator 18.1.1, SVG Export Plug-In . SVG Version: 6.00 Build 0)  -->
<svg version="1.1" id="Layer_1" xmlns="http://www.w3.org/2000/svg" xmlns:xlink="http://www.w3.org/1999/xlink" x="0px" y="0px"
	 viewBox="0 0 612 792" enable-background="new 0 0 612 792" xml:space="preserve">
<rect x="188" y="192.5" fill="none" width="236" height="290"/>
<path fill="#F6F6F6" d="M597.4,643.9c11.4,17.1,15.5,66.5,12.3,148.1H1.2L0,760.1c0-20.4,0.8-43,2.4-67.9c1.7-24.9,4.9-41,9.8-48.3
	c4.1-6.5,11.6-13.3,22.7-20.2c11.1-7,21.2-12.4,30.6-16.5s24.1-10,44-17.7c20-7.7,34.5-13.6,43.5-17.8
	c40.8-16.4,65.7-27.8,74.7-34.3l1.2-57.5l-6.1-6.1c-4.1-4.1-8.6-12.3-13.5-24.4c-4.9-12.3-8.5-26.5-11.1-42.8
	c-6.5,2.4-12.8-0.6-19-9.2c-6.1-8.5-9.6-16.9-10.4-25.1c-0.8-9.8,0.2-20.2,3.1-31.2c2.9-11.1,8.4-15.7,16.5-14
	c-4.1-31-5.8-52.2-4.9-63.7c1.7-25.3,13.8-47.8,36.7-67.4c22.8-19.6,51-29.4,84.5-29.4c33.4,0,61.6,9.8,84.5,29.4
	c22.8,19.6,35.5,42,37.9,67.4c0,3.3-1.7,24.4-4.9,63.7c4.9-0.8,9,1.9,12.3,8c3.2,6.1,5.3,12.7,6.1,19.6c0.8,7,0.8,12.8,0,17.8
	c0,7.3-3.3,15.5-9.8,24.4c-6.5,9-13.1,12.3-19.6,9.7c-4.9,36.7-15.2,61.2-30.6,73.4l1.2,57.5l74.7,34.3c9,4.1,23.4,10,43.5,17.8
	c20,7.7,34.7,13.7,44,17.7c9.4,4.1,19.6,9.6,30.6,16.5C585.8,630.6,593.3,637.4,597.4,643.9"/>
</svg>
