<?xml version="1.0" encoding="utf-8"?>
<!-- Generator: Adobe Illustrator 18.1.1, SVG Export Plug-In . SVG Version: 6.00 Build 0)  -->
<svg version="1.1" id="Слой_1" xmlns="http://www.w3.org/2000/svg" xmlns:xlink="http://www.w3.org/1999/xlink" x="0px" y="0px"
	 viewBox="0 0 117 145" enable-background="new 0 0 117 145" xml:space="preserve">
<g>
	<g>
		<g>
			<path fill-rule="evenodd" clip-rule="evenodd" fill="#4D1B02" d="M77.1,31.7c5.5,0,10-4.5,10-10.1c0-5.5-4.5-10.1-10-10.1
				c-5.5,0-10,4.5-10,10.1C67,27.2,71.5,31.7,77.1,31.7z"/>
			<path fill-rule="evenodd" clip-rule="evenodd" fill="#4D1B02" d="M67.2,27.3c5.5,0,10-4.5,10-10.1c0-5.5-4.5-10.1-10-10.1
				s-10,4.5-10,10.1C57.2,22.8,61.7,27.3,67.2,27.3z"/>
			<path fill-rule="evenodd" clip-rule="evenodd" fill="#4D1B02" d="M52.2,25.7c5.5,0,10-4.5,10-10.1c0-5.5-4.5-10.1-10-10.1
				s-10,4.5-10,10.1C42.2,21.2,46.7,25.7,52.2,25.7z"/>
			<path fill-rule="evenodd" clip-rule="evenodd" fill="#4D1B02" d="M38.7,30.7c5.5,0,10-4.5,10-10.1c0-5.5-4.5-10.1-10-10.1
				c-5.5,0-10,4.5-10,10.1C28.7,26.2,33.2,30.7,38.7,30.7z"/>
			<path fill-rule="evenodd" clip-rule="evenodd" fill="#4D1B02" d="M31,41.9c5.5,0,10-4.5,10-10.1s-4.5-10.1-10-10.1
				c-5.5,0-10,4.5-10,10.1S25.5,41.9,31,41.9z"/>
			<path fill-rule="evenodd" clip-rule="evenodd" fill="#4D1B02" d="M85.6,42.1c5.5,0,10-4.5,10-10.1c0-5.5-4.5-10.1-10-10.1
				c-5.5,0-10,4.5-10,10.1C75.6,37.6,80.1,42.1,85.6,42.1z"/>
			<path fill-rule="evenodd" clip-rule="evenodd" fill="#4D1B02" d="M86.1,56.2c5.5,0,10-4.5,10-10.1c0-5.5-4.5-10.1-10-10.1
				s-10,4.5-10,10.1C76.1,51.7,80.6,56.2,86.1,56.2z"/>
			<path fill-rule="evenodd" clip-rule="evenodd" fill="#4D1B02" d="M78.9,73.2c5.5,0,10-4.5,10-10.1c0-5.5-4.5-10.1-10-10.1
				c-5.5,0-10,4.5-10,10.1C68.9,68.6,73.4,73.2,78.9,73.2z"/>
			<path fill-rule="evenodd" clip-rule="evenodd" fill="#4D1B02" d="M30.2,54.7c5.5,0,10-4.5,10-10.1c0-5.5-4.5-10.1-10-10.1
				s-10,4.5-10,10.1C20.2,50.1,24.7,54.7,30.2,54.7z"/>
			<path fill-rule="evenodd" clip-rule="evenodd" fill="#4D1B02" d="M37.5,74.5c5.5,0,10-4.5,10-10.1s-4.5-10.1-10-10.1
				s-10,4.5-10,10.1S31.9,74.5,37.5,74.5z"/>
			<path fill-rule="evenodd" clip-rule="evenodd" fill="#4D1B02" d="M84.7,65.8c5.5,0,10-4.5,10-10.1c0-5.5-4.5-10.1-10-10.1
				c-5.5,0-10,4.5-10,10.1C74.7,61.3,79.2,65.8,84.7,65.8z"/>
			<path fill-rule="evenodd" clip-rule="evenodd" fill="#4D1B02" d="M31.7,65.1c5.5,0,10-4.5,10-10.1c0-5.5-4.5-10.1-10-10.1
				s-10,4.5-10,10.1C21.7,60.6,26.1,65.1,31.7,65.1z"/>
		</g>
		<path fill-rule="evenodd" clip-rule="evenodd" fill="#E6A875" d="M46.8,91.6c-25.9,11.4-33.6,17.5-36.7,20.2
			C5.4,116,2.8,131.7,0,145h58.5H117c-2.8-13.3-5.4-29-10.1-33.2c-3.1-2.7-10.5-8.7-36.4-20.1L46.8,91.6z"/>
		<path fill-rule="evenodd" clip-rule="evenodd" fill="#E6A875" d="M71.1,68.8v28.9c-6.9,8.5-18.2,8.2-25.1,0V68.8
			C45.9,53.2,71.1,53.2,71.1,68.8z"/>
		<path fill-rule="evenodd" clip-rule="evenodd" fill="#B88053" d="M71.1,68.8v19.3c-4.8,3.5-9.3,5.4-12.6,5.4
			c-3.2,0-7.8-2-12.6-5.4V68.8C45.9,53.2,71.1,53.2,71.1,68.8z"/>
		<path fill-rule="evenodd" clip-rule="evenodd" fill="#E6A875" d="M58.5,17c-42.1,0-27,51.3-24.2,55.3c3,4.5,17.4,16.4,24.2,16.4
			c6.8,0,21.2-11.9,24.2-16.4C85.5,68.3,100.6,17,58.5,17z"/>
		<path fill-rule="evenodd" clip-rule="evenodd" fill="#E6A875" d="M26.4,50.2c2.2-0.7,5,1.8,6.3,5.6c1.3,3.8,0.5,7.6-1.7,8.3
			c-2.2,0.7-5-1.8-6.3-5.6C23.4,54.6,24.2,50.9,26.4,50.2z"/>
		<path fill-rule="evenodd" clip-rule="evenodd" fill="#E6A875" d="M91.1,50.2c-2.2-0.7-5,1.8-6.3,5.6c-1.3,3.8-0.5,7.6,1.7,8.3
			c2.2,0.7,5-1.8,6.3-5.6C94,54.6,93.3,50.9,91.1,50.2z"/>
		<g>
			<path fill-rule="evenodd" clip-rule="evenodd" fill="#4D1B02" d="M55.1,34.3c5.5,0,10-4.5,10-10.1s-4.5-10.1-10-10.1
				c-5.5,0-10,4.5-10,10.1S49.5,34.3,55.1,34.3z"/>
			<path fill-rule="evenodd" clip-rule="evenodd" fill="#4D1B02" d="M68.8,33.8c5.5,0,10-4.5,10-10.1c0-5.5-4.5-10.1-10-10.1
				s-10,4.5-10,10.1C58.8,29.3,63.3,33.8,68.8,33.8z"/>
			<path fill-rule="evenodd" clip-rule="evenodd" fill="#4D1B02" d="M45,37.5c5.5,0,10-4.5,10-10.1s-4.5-10.1-10-10.1
				s-10,4.5-10,10.1S39.4,37.5,45,37.5z"/>
			<path fill-rule="evenodd" clip-rule="evenodd" fill="#4D1B02" d="M37.5,41c4.7,0,8.5-3.9,8.5-8.6c0-4.7-3.8-8.6-8.5-8.6
				S29,27.7,29,32.4C29,37.1,32.8,41,37.5,41z"/>
			<path fill-rule="evenodd" clip-rule="evenodd" fill="#4D1B02" d="M76.8,40.1c5.5,0,10-4.5,10-10.1s-4.5-10.1-10-10.1
				c-5.5,0-10,4.5-10,10.1S71.3,40.1,76.8,40.1z"/>
			<path fill-rule="evenodd" clip-rule="evenodd" fill="#4D1B02" d="M84.9,46.9c3.9,0,7.1-3.2,7.1-7.1c0-3.9-3.2-7.1-7.1-7.1
				c-3.9,0-7.1,3.2-7.1,7.1C77.9,43.7,81,46.9,84.9,46.9z"/>
			<path fill-rule="evenodd" clip-rule="evenodd" fill="#4D1B02" d="M33,48.3c3.8,0,6.8-3.1,6.8-6.9c0-3.8-3.1-6.9-6.8-6.9
				c-3.8,0-6.8,3.1-6.8,6.9C26.2,45.2,29.2,48.3,33,48.3z"/>
			<path fill-rule="evenodd" clip-rule="evenodd" fill="#4D1B02" d="M31.6,52.9c2.4,0,4.4-2,4.4-4.4c0-2.4-2-4.4-4.4-4.4
				s-4.4,2-4.4,4.4C27.2,51,29.2,52.9,31.6,52.9z"/>
			<path fill-rule="evenodd" clip-rule="evenodd" fill="#4D1B02" d="M86.2,53.5c2.4,0,4.4-2,4.4-4.4c0-2.4-2-4.4-4.4-4.4
				s-4.4,2-4.4,4.4C81.8,51.5,83.8,53.5,86.2,53.5z"/>
			<path fill-rule="evenodd" clip-rule="evenodd" fill="#4D1B02" d="M32.1,56.9c1.7,0,3.1-1.4,3.1-3.1c0-1.7-1.4-3.1-3.1-3.1
				c-1.7,0-3.1,1.4-3.1,3.1C29,55.5,30.4,56.9,32.1,56.9z"/>
			<path fill-rule="evenodd" clip-rule="evenodd" fill="#4D1B02" d="M85.7,56.6c1.7,0,3.1-1.4,3.1-3.1c0-1.7-1.4-3.1-3.1-3.1
				c-1.7,0-3.1,1.4-3.1,3.1C82.6,55.2,84,56.6,85.7,56.6z"/>
		</g>
		<path fill-rule="evenodd" clip-rule="evenodd" fill="#FFFFFF" d="M45,67.9c3.5,2.8,23.5,2.6,27,0C68.9,82.5,49.1,83,45,67.9z"/>
		<path fill-rule="evenodd" clip-rule="evenodd" fill="#FFFFFF" d="M45.9,91.9c-25.2,11.2-32.8,17.1-35.8,19.8
			C5.4,116,2.8,131.7,0,145h58.5H117c-2.8-13.3-5.4-29-10.1-33.2c-3-2.7-10.4-8.6-35.8-19.8C66.1,98.8,52.4,99.9,45.9,91.9z"/>
		<path fill-rule="evenodd" clip-rule="evenodd" fill="#68C497" d="M42.7,93.4c-22.6,10.2-29.7,15.8-32.6,18.4
			C5.4,116,2.8,131.7,0,145h58.5H117c-2.8-13.3-5.4-29-10.1-33.2c-2.9-2.6-9.7-8-32-18.1C64.9,104.3,46.2,100.9,42.7,93.4z"/>
		<g>
			<path fill-rule="evenodd" clip-rule="evenodd" fill="#388761" d="M23.8,145h2c-0.1-9-0.1-15.4-0.1-15.4S24.9,136.3,23.8,145z"/>
			<path fill-rule="evenodd" clip-rule="evenodd" fill="#388761" d="M93.2,145h-2c0.1-9,0.1-15.4,0.1-15.4S92.1,136.3,93.2,145z"/>
		</g>
	</g>
</g>
</svg>
