<?xml version="1.0" encoding="utf-8"?>
<!-- Generator: Adobe Illustrator 18.1.1, SVG Export Plug-In . SVG Version: 6.00 Build 0)  -->
<svg version="1.1" id="Слой_1" xmlns="http://www.w3.org/2000/svg" xmlns:xlink="http://www.w3.org/1999/xlink" x="0px" y="0px"
	 viewBox="0 0 117 145" enable-background="new 0 0 117 145" xml:space="preserve">
<g>
	<g>
		<path fill-rule="evenodd" clip-rule="evenodd" fill="#4D1B02" d="M21.5,110.1c2.4,6.1,23,8.4,9.7-25.1
			C15.8,45.9,44.8,32.7,58.8,38.8c16.7-5.6,37.1,11.9,27.9,46.2c-9.4,34.8,8.9,30.6,11.3,24.6C80.7,154.1,39,154.7,21.5,110.1z"/>
		<path fill-rule="evenodd" clip-rule="evenodd" fill="#FFDECC" d="M68.1,104.4c-0.2,0.3-19.7,0.6-19.9,0.9
			c-6.1,8.8-19.3,12.6-29.8,15C7.9,122.7,7.5,136.1,7.5,145h101.9c0-8.9-0.2-22.2-10.9-24.6C87.9,118,73.9,113.6,68.1,104.4z"/>
		<path fill-rule="evenodd" clip-rule="evenodd" fill="#FFDECC" d="M68.7,85.7v25.2c-5.6,7.4-14.8,7.2-20.4,0V85.7
			C48.3,72.1,68.7,72.1,68.7,85.7z"/>
		<path fill-rule="evenodd" clip-rule="evenodd" fill="#F7C5AA" d="M68.7,85.7v16.9c-3.9,3-7.6,4.7-10.2,4.7
			c-2.6,0-6.3-1.7-10.2-4.7V85.7C48.3,72.1,68.7,72.1,68.7,85.7z"/>
		<path fill-rule="evenodd" clip-rule="evenodd" fill="#FFDECC" d="M58.5,103.1c-6.7,0-20.7-10.5-25-25.6
			c-4.4-15.2,3.9-37.1,25-37.1s29.4,21.8,25,37.1C79.2,92.6,65.1,103.1,58.5,103.1z"/>
		<path fill-rule="evenodd" clip-rule="evenodd" fill="#FF386A" d="M50.9,87.9c3.4-3.3,6-0.8,8-0.8c2,0,4.6-2.5,8,0.8
			C65.1,96.6,53.3,96.9,50.9,87.9z"/>
		<path fill-rule="evenodd" clip-rule="evenodd" fill="#FF386A" d="M8.4,133c-0.8,4.1-0.9,8.4-0.9,12h101.9c0-3.6,0-8-0.8-12H8.4z"
			/>
		<path fill-rule="evenodd" clip-rule="evenodd" fill="#C9204A" d="M50.9,87.9c3.4-3.3,6-0.8,8-0.8c2,0,4.6-2.5,8,0.8
			C61.7,90.5,54.4,89.3,50.9,87.9z"/>
		<path fill-rule="evenodd" clip-rule="evenodd" fill="#4D1B02" d="M31.2,62.1c0.9-30.9,54.3-28,54.6,0
			C70.1,65.9,44.8,65.3,31.2,62.1z"/>
		<path fill-rule="evenodd" clip-rule="evenodd" fill="#FFDECC" d="M29.1,68.3c2.1-0.9,5.2,1.3,6.8,5.1c1.6,3.7,1.1,7.5-1,8.4
			c-2.1,0.9-5.2-1.3-6.7-5.1C26.5,73,26.9,69.2,29.1,68.3z"/>
		<path fill-rule="evenodd" clip-rule="evenodd" fill="#FFDECC" d="M88.1,68.3c-2.1-0.9-5.2,1.3-6.8,5.1c-1.6,3.7-1.1,7.5,1,8.4
			c2.1,0.9,5.2-1.3,6.7-5.1C90.7,73,90.2,69.2,88.1,68.3z"/>
		<path fill-rule="evenodd" clip-rule="evenodd" fill="#4D1B02" d="M72.4,55.7C83.2,62.6,83.8,71.8,84.2,79
			C89.1,72.9,89.5,51.5,72.4,55.7z"/>
		<path fill-rule="evenodd" clip-rule="evenodd" fill="#4D1B02" d="M44.8,55.7C34,62.6,33.4,71.8,32.9,79
			C28.1,72.9,27.7,51.5,44.8,55.7z"/>
		<g>
			<path fill-rule="evenodd" clip-rule="evenodd" fill="#C21842" d="M25.8,145c0.1-2,0.2-4.4,0.7-7.4c-0.9,2.9-1.5,5.3-2,7.4H25.8z"
				/>
			<path fill-rule="evenodd" clip-rule="evenodd" fill="#C21842" d="M91.2,145c-0.1-2-0.2-4.4-0.7-7.4c0.9,2.9,1.5,5.3,2,7.4H91.2z"
				/>
		</g>
	</g>
</g>
</svg>
