<?xml version="1.0" encoding="utf-8"?>
<!-- Generator: Adobe Illustrator 18.1.1, SVG Export Plug-In . SVG Version: 6.00 Build 0)  -->
<svg version="1.1" id="Слой_1" xmlns="http://www.w3.org/2000/svg" xmlns:xlink="http://www.w3.org/1999/xlink" x="0px" y="0px"
	 viewBox="0 0 117 145" enable-background="new 0 0 117 145" xml:space="preserve">
<g>
	<g>
		<path fill-rule="evenodd" clip-rule="evenodd" fill="#A2400F" d="M59.2,127.2C28.5,127.8,25,91.3,26.2,73.2
			c2.1-33.6,32.4-47.1,44.8-35.6c13.2,0,19.3,16.5,20.8,35.2C93.7,97.9,84.6,126.7,59.2,127.2z"/>
		<path fill-rule="evenodd" clip-rule="evenodd" fill="#FFDECC" d="M68.1,104.4c-0.2,0.3-19.7,0.6-19.9,0.9
			c-6.1,8.8-19.3,12.6-29.8,15C7.9,122.7,7.5,136.1,7.5,145h101.9c0-8.9-0.2-22.2-10.9-24.6C87.9,118,73.9,113.6,68.1,104.4z"/>
		<path fill-rule="evenodd" clip-rule="evenodd" fill="#FFDECC" d="M68.7,85.7v25.2c-5.6,7.4-14.8,7.2-20.4,0V85.7
			C48.3,72.1,68.7,72.1,68.7,85.7z"/>
		<path fill-rule="evenodd" clip-rule="evenodd" fill="#F7C5AA" d="M68.7,85.7v16.9c-3.9,3-7.6,4.7-10.2,4.7
			c-2.6,0-6.3-1.7-10.2-4.7V85.7C48.3,72.1,68.7,72.1,68.7,85.7z"/>
		<path fill-rule="evenodd" clip-rule="evenodd" fill="#FFDECC" d="M58.5,103.1c-6.7,0-20.7-10.5-25-25.6
			c-4.4-15.2,3.9-37.1,25-37.1c21.2,0,29.4,21.8,25,37.1C79.2,92.6,65.2,103.1,58.5,103.1z"/>
		<path fill-rule="evenodd" clip-rule="evenodd" fill="#FF386A" d="M50.5,87.9c3.4-3.3,6-0.8,8-0.8c2,0,4.6-2.5,8,0.8
			C64.7,96.6,52.9,96.9,50.5,87.9z"/>
		<path fill-rule="evenodd" clip-rule="evenodd" fill="#FFFFFF" d="M51.5,88.4c1.9-0.5,11.3-0.6,13.9-0.1
			C63.3,92.3,53.4,92.1,51.5,88.4z"/>
		<path fill-rule="evenodd" clip-rule="evenodd" fill="#FF386A" d="M50.5,87.9c3.4-3.3,6-0.8,8-0.8c2,0,4.6-2.5,8,0.8
			C61.3,90.5,54,89.3,50.5,87.9z"/>
		<path fill-rule="evenodd" clip-rule="evenodd" fill="#FFDECC" d="M29.3,68.3c2.1-0.9,5.2,1.3,6.7,5.1c1.6,3.7,1.1,7.5-1,8.4
			c-2.1,0.9-5.2-1.3-6.8-5.1C26.7,73,27.1,69.2,29.3,68.3z"/>
		<path fill-rule="evenodd" clip-rule="evenodd" fill="#FFDECC" d="M88.3,68.3c-2.1-0.9-5.2,1.3-6.8,5.1c-1.6,3.7-1.1,7.5,1,8.4
			c2.1,0.9,5.2-1.3,6.7-5.1C90.9,73,90.4,69.2,88.3,68.3z"/>
		<path fill-rule="evenodd" clip-rule="evenodd" fill="#A2400F" d="M85.6,77.2c8-34.7-16.2-40.6-30.4-40.6c-15.9,0-28,19-25.3,41.2
			c8.5-5.2,16-15.4,34.6-32c-2.7,4.9-8,13.8-25.9,29.9c9.6,1.6,27.6-10.6,37.2-23.4C78.1,61.4,81.4,71.4,85.6,77.2z"/>
		<path fill-rule="evenodd" clip-rule="evenodd" fill="#68C497" d="M36.7,114.5c-5.8,2.8-12.5,4.6-18.3,5.9
			C7.9,122.7,7.5,136.1,7.5,145h101.9c0-8.9-0.2-22.2-10.9-24.6c-5.7-1.3-12.4-3.1-18.2-6l0,0c-8.8,14.7-16.8,22.7-21.8,25.5
			C53.5,137.1,45.5,129.1,36.7,114.5z"/>
		<g>
			<path fill-rule="evenodd" clip-rule="evenodd" fill="#3C8A64" d="M25.8,145c0.1-2,0.2-4.4,0.7-7.4c-0.9,2.9-1.5,5.3-2,7.4H25.8z"
				/>
			<path fill-rule="evenodd" clip-rule="evenodd" fill="#3C8A64" d="M91.2,145c-0.1-2-0.2-4.4-0.7-7.4c0.9,2.9,1.5,5.3,2,7.4H91.2z"
				/>
		</g>
		
			<path fill-rule="evenodd" clip-rule="evenodd" fill="none" stroke="#FFFFFF" stroke-width="1.1999" stroke-miterlimit="22.9256" stroke-dasharray="2.3998,3.5997" d="
			M34.8,115.2c4.8,9.8,14.6,23.2,23.7,27.6 M82.2,115.2c-4.8,9.8-14.6,23.2-23.7,27.6"/>
	</g>
</g>
</svg>
