<?xml version="1.0" encoding="utf-8"?>
<!-- Generator: Adobe Illustrator 18.1.1, SVG Export Plug-In . SVG Version: 6.00 Build 0)  -->
<svg version="1.1" id="Слой_1" xmlns="http://www.w3.org/2000/svg" xmlns:xlink="http://www.w3.org/1999/xlink" x="0px" y="0px"
	 viewBox="0 0 117 145" enable-background="new 0 0 117 145" xml:space="preserve">
<g>
	<g>
		<path fill-rule="evenodd" clip-rule="evenodd" fill="#A2400F" d="M79.2,45c2.2-1,7.6,4.6,9.8,13.6c-6.6-4-1.2,0.1-1,12.7
			c0.2,13.5-2.2,18-6.2,23c-2.3-10.1-5.7,7.2-13.4,12c-7.8,4.8-13.2,4.2-20,0.3C41.1,102.5,38,87,37.2,97.5
			c-7.4-8-9.2-16.3-9.1-26.6c0.1-11.7,9.3-18.7-1-11.6C31.9,48,38.1,42.7,43.9,39.4C54.2,33.7,68.6,33.2,79.2,45z"/>
		<path fill-rule="evenodd" clip-rule="evenodd" fill="#FFDECC" d="M68.1,104.2c-0.2,0.3-19.7,0.6-19.9,0.9
			c-6.1,8.8-19.3,12.6-29.8,15c-10.5,2.4-10.9,15.7-10.9,24.6h101.9c0-8.9-0.2-22.2-10.9-24.6C87.9,117.8,73.9,113.4,68.1,104.2z"/>
		<path fill-rule="evenodd" clip-rule="evenodd" fill="#FFDECC" d="M68.7,85.5v25.2c-5.6,7.4-14.8,7.2-20.4,0V85.5
			C48.3,71.9,68.7,71.9,68.7,85.5z"/>
		<path fill-rule="evenodd" clip-rule="evenodd" fill="#F7C5AA" d="M68.7,85.5v16.9c-3.9,3-7.6,4.7-10.2,4.7s-6.3-1.7-10.2-4.7V85.5
			C48.3,71.9,68.7,71.9,68.7,85.5z"/>
		<path fill-rule="evenodd" clip-rule="evenodd" fill="#FFDECC" d="M58.5,102.9c-6.7,0-20.7-10.5-25-25.6
			c-4.4-15.2,3.9-37.1,25-37.1c21.2,0,29.4,21.8,25,37.1C79.2,92.4,65.2,102.9,58.5,102.9z"/>
		<path fill-rule="evenodd" clip-rule="evenodd" fill="#FF386A" d="M47.9,87.5c4.5-3.3,9.2-1.3,10.7-1.3c1.6,0,6-2,10.5,1.3
			C66.9,96.5,51.3,96.8,47.9,87.5z"/>
		<path fill-rule="evenodd" clip-rule="evenodd" fill="#A31F40" d="M48,87.4c4.2-1.5,7.8,1.4,10.5,1.4c2.6,0,6.3-3.9,10.5-1.3
			C64.1,92.6,52.9,92.3,48,87.4z"/>
		<path fill-rule="evenodd" clip-rule="evenodd" fill="#FFFFFF" d="M47.9,87.4c4.5-1.9,7.8-0.5,10.4-0.5c2.6,0,6.3-1.3,10.8,0.5
			C64.2,90.2,52.8,90.1,47.9,87.4z"/>
		<path fill-rule="evenodd" clip-rule="evenodd" fill="#FF386A" d="M47.9,87.4c4.5-3.3,8.3-1,10.9-1c2.6,0,5.8-2.3,10.2,1
			c0,0,0,0.1-0.1,0.1C63.3,87.5,54,87.4,47.9,87.4z"/>
		<path fill-rule="evenodd" clip-rule="evenodd" fill="#FFDECC" d="M28,70.4c2.1-0.9,5.2,1.3,6.8,5.1c1.6,3.7,1.1,7.5-1,8.4
			c-2.1,0.9-5.2-1.3-6.7-5.1C25.4,75.1,25.9,71.4,28,70.4z"/>
		<path fill-rule="evenodd" clip-rule="evenodd" fill="#FFDECC" d="M87,70.4c-2.1-0.9-5.2,1.3-6.8,5.1c-1.6,3.7-1.1,7.5,1,8.4
			c2.1,0.9,5.2-1.3,6.7-5.1C89.6,75.1,89.2,71.4,87,70.4z"/>
		<path fill-rule="evenodd" clip-rule="evenodd" fill="#A2400F" d="M81.4,79.8c0,0-1.8-17.2-6-22.9c-3.6,5.3-13.1,8.3-23.4,6.8
			c17.8-8.4-4.4,1-8.6-2.9c-3.9,2.1-5.9,12.9-7.8,19.4c-6.6-11.6-3.8-25.6,0.7-32.2c8.8-12.7,27.7-15.6,40.6-4
			C85.9,52,88.8,69.3,81.4,79.8z"/>
		<path fill-rule="evenodd" clip-rule="evenodd" fill="#68C497" d="M48.2,105.2c-4.9,5.1-17.7,19.4-18.9,39.6h16.3
			C44.1,135,44.4,122.1,48.2,105.2L48.2,105.2z M88.1,144.8c-1.2-20.2-14-34.6-18.9-39.6c3.9,16.9,4.2,29.8,2.6,39.6H88.1z"/>
		<g>
			<path fill-rule="evenodd" clip-rule="evenodd" fill="#F7C5AA" d="M25.8,144.8c0.1-2,0.2-4.4,0.7-7.4c-0.9,2.9-1.5,5.3-2,7.4H25.8
				z"/>
			<path fill-rule="evenodd" clip-rule="evenodd" fill="#F7C5AA" d="M91.2,144.8c-0.1-2-0.2-4.4-0.7-7.4c0.9,2.9,1.5,5.3,2,7.4H91.2
				z"/>
		</g>
	</g>
</g>
</svg>
