<?xml version="1.0" encoding="utf-8"?>
<!-- Generator: Adobe Illustrator 18.1.1, SVG Export Plug-In . SVG Version: 6.00 Build 0)  -->
<svg version="1.1" id="Слой_1" xmlns="http://www.w3.org/2000/svg" xmlns:xlink="http://www.w3.org/1999/xlink" x="0px" y="0px"
	 viewBox="0 0 117 145" enable-background="new 0 0 117 145" xml:space="preserve">
<g>
	<g>
		<path fill-rule="evenodd" clip-rule="evenodd" fill="#FFDECC" d="M88.2,71.6c-2.1-0.9-5.2,1.3-6.8,5.1c-1.6,3.7-1.1,7.5,1,8.4
			c2.1,0.9,5.2-1.3,6.8-5.1C90.8,76.3,90.4,72.5,88.2,71.6z"/>
		<path fill-rule="evenodd" clip-rule="evenodd" fill="#FF690F" d="M17.5,114.7c-2.1-2.9-0.7-5.6,2.5-7.4c4.6-2.6,3.5-6.7-2.2-9.3
			C12.1,95.3,11,87.5,17,83.1c6-4.3,7.5-7.8,3.3-13.7c-4.2-5.9-1.1-15.9,5.4-17.2c6.4-1.3,5.5-2.1,6.8-7.3c2.4-9,12.7-15.9,18.2-10
			c7.9-9.7,25.7-2.3,28.9,6.7c3.4,9.5,6.5,9.4,11.6,12.1c5.1,2.6,6.7,14.5,2.9,19.5c-5.1,6.6-2.3,9.5,3.9,12.6
			c6.2,3.1,4.7,7.7-0.3,10.3c-4.9,2.6-8,7.2-3.4,9.8c3.4,1.9,4.4,4.7,3.1,8.8C91.2,134.5,34.6,137.8,17.5,114.7z"/>
		<path fill-rule="evenodd" clip-rule="evenodd" fill="#FFDECC" d="M68.1,104.4c-0.2,0.3-19.7,0.6-19.9,0.9
			c-6.1,8.8-19.3,12.6-29.8,15C7.9,122.7,7.5,136.1,7.5,145h101.9c0-8.9-0.2-22.2-10.9-24.6C87.9,118,73.9,113.6,68.1,104.4z"/>
		<path fill-rule="evenodd" clip-rule="evenodd" fill="#FFDECC" d="M68.7,85.7v25.2c-5.6,7.4-14.8,7.2-20.4,0V85.7
			C48.3,72.1,68.7,72.1,68.7,85.7z"/>
		<path fill-rule="evenodd" clip-rule="evenodd" fill="#F7C5AA" d="M68.7,85.7v16.9c-3.9,3-7.6,4.7-10.2,4.7s-6.3-1.7-10.2-4.7V85.7
			C48.3,72.1,68.7,72.1,68.7,85.7z"/>
		<path fill-rule="evenodd" clip-rule="evenodd" fill="#FFDECC" d="M58.5,103.1c-6.6,0-20.7-10.5-25-25.6
			c-4.4-15.2,3.9-37.1,25-37.1c21.2,0,29.4,21.8,25,37.1C79.2,92.6,65.2,103.1,58.5,103.1z"/>
		<path fill-rule="evenodd" clip-rule="evenodd" fill="#FF386A" d="M50.5,87.9c3.4-3.3,6-0.8,8-0.8c2,0,4.6-2.5,8,0.8
			C64.7,96.6,52.9,96.9,50.5,87.9z"/>
		<path fill-rule="evenodd" clip-rule="evenodd" fill="#FFFFFF" d="M51.5,88.4c1.9-0.5,11.3-0.6,13.9-0.1
			C63.3,92.3,53.4,92.1,51.5,88.4z"/>
		<path fill-rule="evenodd" clip-rule="evenodd" fill="#FF386A" d="M50.5,87.9c3.4-3.3,6-0.8,8-0.8c2,0,4.6-2.5,8,0.8
			C61.3,90.5,54,89.3,50.5,87.9z"/>
		<path fill-rule="evenodd" clip-rule="evenodd" fill="#86BCEB" d="M21.3,145c10.9-12.8,26.4-2.1,36.6-2.1
			c10.1,0,25.5-12.3,36.6,2.1H21.3z"/>
		<path fill-rule="evenodd" clip-rule="evenodd" fill="#FF690F" d="M80.1,92.4C75,102,100.6,68,78.5,45.4C65.3,32,43.5,32.9,35,47.9
			c4.2,6.4,13.1,12.1,23.6,11.8c17.8-0.4-1.4,10.9,13.1,12.8c10.6,1.4,8.5,3.3,3.3,9.1C71.4,85.7,72.4,91,80.1,92.4z"/>
		<path fill-rule="evenodd" clip-rule="evenodd" fill="#FFDECC" d="M29.2,71.6c2.1-0.9,5.2,1.3,6.8,5.1c1.6,3.7,1.1,7.5-1,8.4
			c-2.1,0.9-5.2-1.3-6.8-5.1C26.6,76.3,27.1,72.5,29.2,71.6z"/>
		<path fill-rule="evenodd" clip-rule="evenodd" fill="#FF690F" d="M44.9,48.2c-2,8.2,1.3,14.6-5.4,15.4c-8.8,1-4.6,6.6-5.3,13.4
			C29.4,70.9,27.8,44,44.9,48.2z"/>
	</g>
</g>
</svg>
