<?xml version="1.0" encoding="utf-8"?>
<!-- Generator: Adobe Illustrator 18.1.1, SVG Export Plug-In . SVG Version: 6.00 Build 0)  -->
<svg version="1.1" id="Слой_1" xmlns="http://www.w3.org/2000/svg" xmlns:xlink="http://www.w3.org/1999/xlink" x="0px" y="0px"
	 viewBox="0 0 117 145" enable-background="new 0 0 117 145" xml:space="preserve">
<g>
	<g>
		<path fill-rule="evenodd" clip-rule="evenodd" fill="#F0B98B" d="M68.1,104.4c-0.2,0.3-19.7,0.6-19.9,0.9
			c-6.1,8.8-19.3,12.6-29.8,15C7.9,122.7,7.5,136.1,7.5,145h101.9c0-8.9-0.2-22.2-10.9-24.6C87.9,118,73.9,113.6,68.1,104.4z"/>
		<path fill-rule="evenodd" clip-rule="evenodd" fill="#FF386A" d="M14.3,122.1c-6.5,4.5-6.8,15.3-6.8,22.9h101.9
			c0-7.6-0.2-18.4-6.8-22.9C87.2,143.4,29.9,143.4,14.3,122.1z"/>
		<path fill-rule="evenodd" clip-rule="evenodd" fill="#CC7C54" d="M30.5,44.9c3.6-7.7,10.7-12.6,20.6-10.7
			c7.9-9.7,28.9-0.9,33.1,7.6c16.5,32.9-12.7,51.4-26.5,51.4C45.4,93.2,17.8,72,30.5,44.9z"/>
		<path fill-rule="evenodd" clip-rule="evenodd" fill="#F0B98B" d="M68.7,85.7v25.2c-5.6,7.4-14.8,7.2-20.4,0V85.7
			C48.3,72.1,68.7,72.1,68.7,85.7z"/>
		<path fill-rule="evenodd" clip-rule="evenodd" fill="#CC9568" d="M68.7,85.7v16.9c-3.9,3-7.6,4.7-10.2,4.7s-6.3-1.7-10.2-4.7V85.7
			C48.3,72.1,68.7,72.1,68.7,85.7z"/>
		<path fill-rule="evenodd" clip-rule="evenodd" fill="#CC7C54" d="M87.5,69c15.9,3.9,14.6,26.9,5.3,35.2
			c-14.6,13,1.7,24.3-3.3,23.2c-12.1-2.5-20.3-20.3-8-34C93.9,79.6,78.4,66.8,87.5,69z"/>
		<path fill-rule="evenodd" clip-rule="evenodd" fill="#86BCEB" d="M85.2,67.8c-3.3,2.3-5.2,5.2-4.3,6.5c0.9,1.3,4.3,0.5,7.5-1.8
			c3.3-2.3,5.2-5.2,4.3-6.5C91.8,64.7,88.5,65.5,85.2,67.8z"/>
		<path fill-rule="evenodd" clip-rule="evenodd" fill="#CC7C54" d="M29.9,69c-15.9,3.9-14.6,26.9-5.3,35.2
			c14.6,13-1.7,24.3,3.3,23.2c12.1-2.5,20.3-20.3,8-34C23.6,79.6,39,66.8,29.9,69z"/>
		<path fill-rule="evenodd" clip-rule="evenodd" fill="#86BCEB" d="M32.2,67.8c3.3,2.3,5.2,5.2,4.3,6.5c-0.9,1.3-4.3,0.5-7.5-1.8
			c-3.3-2.3-5.2-5.2-4.3-6.5C25.6,64.7,29,65.5,32.2,67.8z"/>
		<path fill-rule="evenodd" clip-rule="evenodd" fill="#F0B98B" d="M58.5,103.1c-6.7,0-20.7-10.5-25-25.6
			c-4.4-15.2,3.9-37.1,25-37.1c21.2,0,29.4,21.8,25,37.1C79.2,92.6,65.2,103.1,58.5,103.1z"/>
		<path fill-rule="evenodd" clip-rule="evenodd" fill="#FF386A" d="M47.9,85.1c4.5-3.3,9.2-1.3,10.7-1.3c1.6,0,6-2,10.5,1.3
			C66.9,94.2,51.3,94.4,47.9,85.1z"/>
		<path fill-rule="evenodd" clip-rule="evenodd" fill="#A31F40" d="M48,85.1c4.2-1.5,7.8,1.4,10.5,1.4c2.6,0,6.3-3.9,10.5-1.3
			C64.1,90.2,52.9,90,48,85.1z"/>
		<path fill-rule="evenodd" clip-rule="evenodd" fill="#FFFFFF" d="M47.9,85.1c4.5-1.9,7.8-0.5,10.4-0.5c2.6,0,6.3-1.4,10.8,0.5
			C64.2,87.9,52.8,87.8,47.9,85.1z"/>
		<path fill-rule="evenodd" clip-rule="evenodd" fill="#FF386A" d="M47.9,85.1c4.5-3.3,8.3-1,10.9-1c2.6,0,5.8-2.3,10.2,1
			c0,0,0,0.1-0.1,0.1C63.3,85.2,54,85.1,47.9,85.1z"/>
		<path fill-rule="evenodd" clip-rule="evenodd" fill="#F0B98B" d="M28,68.3c2.1-0.9,5.2,1.3,6.8,5.1c1.6,3.7,1.1,7.5-1,8.4
			c-2.1,0.9-5.2-1.3-6.7-5.1C25.4,73,25.9,69.2,28,68.3z"/>
		<path fill-rule="evenodd" clip-rule="evenodd" fill="#F0B98B" d="M87,68.3c-2.1-0.9-5.2,1.3-6.8,5.1c-1.6,3.7-1.1,7.5,1,8.4
			c2.1,0.9,5.2-1.3,6.7-5.1C89.6,73,89.2,69.2,87,68.3z"/>
		<path fill-rule="evenodd" clip-rule="evenodd" fill="#CC7C54" d="M83.2,73.4C95.6,38,71.6,35.7,57.4,35.7
			c-15.9,0-34.6,8.2-24.3,38c15.2-0.8,28.6-9.3,42-27.2C77.4,55.7,79,67.5,83.2,73.4z"/>
		<g>
			<path fill-rule="evenodd" clip-rule="evenodd" fill="#C21842" d="M25.8,145c0.1-2,0.2-4.4,0.7-7.4c-0.9,2.9-1.5,5.3-2,7.4H25.8z"
				/>
			<path fill-rule="evenodd" clip-rule="evenodd" fill="#C21842" d="M91.2,145c-0.1-2-0.2-4.4-0.7-7.4c0.9,2.9,1.5,5.3,2,7.4H91.2z"
				/>
		</g>
		<path fill-rule="evenodd" clip-rule="evenodd" fill="#FFFFFF" d="M106.1,125.7c-0.9,0.8-2.1,1.3-3.4,1.3c-0.9,0-1.7-0.2-2.4-0.6
			c0.3,0.6,0.5,1.4,0.5,2.2c0,2.7-2.2,4.9-4.9,4.9c-1.5,0-2.9-0.7-3.8-1.9c0.1,0.5,0.2,0.9,0.2,1.4c0,2.7-2.2,4.9-4.9,4.9
			c-1.9,0-3.6-1.1-4.4-2.7c0,0.2,0.1,0.5,0.1,0.7c0,2.7-2.2,4.9-4.9,4.9c-2.4,0-4.3-1.7-4.8-4c12.6-2.1,23.7-7,29.3-14.7
			C104.1,123.1,105.2,124.3,106.1,125.7L106.1,125.7z M34.8,136.8v-1.5c0-0.2,0.1-0.3,0.1-0.5c8.7,2.6,18.7,3.6,28.5,3.1l0,0.1
			c0,2.7-2.2,4.9-4.9,4.9c-2.3,0-4.2-1.6-4.7-3.7c-0.7,1.9-2.5,3.2-4.6,3.2c-2.7,0-4.9-2.2-4.9-4.9c0-0.2,0-0.3,0-0.5
			c-0.5,2.2-2.4,3.8-4.8,3.8C37.2,141,35.1,139.2,34.8,136.8L34.8,136.8z M34.8,135c0-0.1,0-0.1,0.1-0.2l-0.1,0V135L34.8,135z
			 M73.2,136.9c-3.2,0.5-6.4,0.9-9.7,1.1c0.2,2.5,2.3,4.5,4.9,4.5c2.7,0,4.9-2.2,4.9-4.9C73.2,137.3,73.2,137.1,73.2,136.9z
			 M34.8,134.8v0.2c-0.7,1.9-2.5,3.2-4.6,3.2c-2.3,0-4.2-1.5-4.7-3.6V132c0.1-0.2,0.1-0.5,0.2-0.7C28.5,132.7,31.5,133.9,34.8,134.8
			L34.8,134.8z M34.8,135.3c0,0.2-0.1,0.5-0.1,0.7c0,0.3,0,0.5,0.1,0.7V135.3L34.8,135.3z M25.5,131.5c0.1-0.1,0.1-0.2,0.2-0.3
			l-0.2-0.1V131.5z M25.5,131.2v0.4c-0.9,1.3-2.4,2.2-4.1,2.2c-2.7,0-4.9-2.2-4.9-4.9c0-1.1,0.4-2.2,1-3c-0.9,0.8-2,1.3-3.3,1.3
			c-1.3,0-2.5-0.5-3.3-1.3c0.9-1.4,2-2.6,3.3-3.6C17,125.8,20.8,128.8,25.5,131.2L25.5,131.2z M25.5,132c-0.1,0.4-0.2,0.8-0.2,1.3
			s0.1,0.9,0.2,1.3V132z"/>
	</g>
</g>
</svg>
