<?xml version="1.0" encoding="utf-8"?>
<!-- Generator: Adobe Illustrator 18.1.1, SVG Export Plug-In . SVG Version: 6.00 Build 0)  -->
<svg version="1.1" id="Слой_1" xmlns="http://www.w3.org/2000/svg" xmlns:xlink="http://www.w3.org/1999/xlink" x="0px" y="0px"
	 viewBox="0 0 117 145" enable-background="new 0 0 117 145" xml:space="preserve">
<g>
	<g>
		<path fill-rule="evenodd" clip-rule="evenodd" fill="#802D04" d="M57.7,13.6c13.1,0.2,22.7,3.1,31,17.5c6.4,11,11.6,42.2,0.1,65.8
			c0.1-5.4-2.4-10.5-6.5-13.1c2,6,9.7,15,1.9,26.8c-7.7,11.5-39.4,11.4-51.5-5.5c-4.2-5.9-3.8-13.5,1.1-20.8
			c-6.1,2.7-5.8,13.9-6.9,11.5c-3.2-4.5-13.1-30.4,1.5-62.3C33.8,21.4,44.1,13.4,57.7,13.6z"/>
		<path fill-rule="evenodd" clip-rule="evenodd" fill="#FFDECC" d="M71.1,68.8v28.9c-6.9,8.5-18.2,8.2-25.1,0V68.8
			C45.9,53.2,71.1,53.2,71.1,68.8z"/>
		<path fill-rule="evenodd" clip-rule="evenodd" fill="#497194" d="M46.8,91.6c-25.9,11.4-33.6,17.5-36.7,20.2
			C5.4,116,2.8,131.7,0,145h58.5H117c-2.8-13.3-5.4-29-10.1-33.2c-3.1-2.7-10.5-8.7-36.4-20.1L46.8,91.6z"/>
		<path fill-rule="evenodd" clip-rule="evenodd" fill="#FFDECC" d="M43.3,89.6L42,145h32.9l-1.3-55.4C63.5,89.6,53.4,89.6,43.3,89.6
			z"/>
		<path fill-rule="evenodd" clip-rule="evenodd" fill="#FFFFFF" d="M38.8,105.3c6.5,4.9,24.5,8.1,40.7,1.2
			c-11.2,14.9-7.3,38.5-7.3,38.5H49.3C49.3,145,46.9,124.3,38.8,105.3z"/>
		<path fill-rule="evenodd" clip-rule="evenodd" fill="#F7C5AA" d="M71.1,68.8v19.3c-4.8,3.5-9.3,5.4-12.6,5.4s-7.8-2-12.6-5.4V68.8
			C45.9,53.2,71.1,53.2,71.1,68.8z"/>
		<path fill-rule="evenodd" clip-rule="evenodd" fill="#86BCEB" d="M45.9,82.9v14.7l5.5,47.3H42l-10.3-21.1l9.8-6.6l-12-5.7
			C29.5,111.6,32,91.8,45.9,82.9z"/>
		<path fill-rule="evenodd" clip-rule="evenodd" fill="#86BCEB" d="M71.1,82.9l0,14.7L65.5,145h9.4l10.3-21.1l-9.8-6.6l12-5.7
			C87.4,111.6,82.9,90.8,71.1,82.9z"/>
		<path fill-rule="evenodd" clip-rule="evenodd" fill="#FFDECC" d="M58.5,17c-42.1,0-27,51.3-24.2,55.3c3,4.5,17.4,16.4,24.2,16.4
			s21.2-11.9,24.2-16.4C85.5,68.3,100.6,17,58.5,17z"/>
		<path fill-rule="evenodd" clip-rule="evenodd" fill="#F7C5AA" d="M45,67.9c9.2,3.6,19.6,3.2,27,0C69.1,75.5,49.2,75.6,45,67.9z"/>
		<path fill-rule="evenodd" clip-rule="evenodd" fill="#F7C5AA" d="M47.7,66.4c-1.7,1.4-2.8,3.5-2.9,5.3
			C43.6,69.7,45.8,65.7,47.7,66.4z"/>
		<path fill-rule="evenodd" clip-rule="evenodd" fill="#F7C5AA" d="M69.1,66.4c1.7,1.4,2.8,3.5,2.9,5.3C73.2,69.7,71,65.7,69.1,66.4
			z"/>
		<path fill-rule="evenodd" clip-rule="evenodd" fill="#FFDECC" d="M26.3,47.4c2.2-0.7,5,1.8,6.3,5.6c1.3,3.9,0.5,7.6-1.7,8.3
			c-2.2,0.7-5-1.8-6.3-5.6C23.3,51.9,24.1,48.1,26.3,47.4z"/>
		<path fill-rule="evenodd" clip-rule="evenodd" fill="#FFDECC" d="M91,47.4c-2.2-0.7-5,1.8-6.3,5.6c-1.3,3.9-0.5,7.6,1.7,8.3
			c2.2,0.7,5-1.8,6.3-5.6C94,51.9,93.2,48.1,91,47.4z"/>
		<path fill-rule="evenodd" clip-rule="evenodd" fill="#802D04" d="M86,60.8c0,0-2.7-15.1-9.1-23.8c-4.6,10.2-9.1,15.1-30.9,20.3
			c6.6-5.6,9.7-13.9,10-18.5c-14.1,3.9-22.8,15-25,22.5c-6.6-11.6-0.6-29.1,4-35.7c8.8-12.7,30.4-15.8,43.3-4.3
			C87.1,29.5,90.8,27.7,86,60.8z"/>
		<g>
			<path fill-rule="evenodd" clip-rule="evenodd" fill="#264057" d="M23.8,145h2c-0.1-9-0.1-15.4-0.1-15.4S24.9,136.3,23.8,145z"/>
			<path fill-rule="evenodd" clip-rule="evenodd" fill="#264057" d="M93.2,145h-2c0.1-9,0.1-15.4,0.1-15.4S92.1,136.3,93.2,145z"/>
		</g>
	</g>
</g>
</svg>
