<?xml version="1.0" encoding="utf-8"?>
<!-- Generator: Adobe Illustrator 18.1.1, SVG Export Plug-In . SVG Version: 6.00 Build 0)  -->
<svg version="1.1" id="Слой_1" xmlns="http://www.w3.org/2000/svg" xmlns:xlink="http://www.w3.org/1999/xlink" x="0px" y="0px"
	 viewBox="0 0 117 145" enable-background="new 0 0 117 145" xml:space="preserve">
<g>
	<g>
		<path fill-rule="evenodd" clip-rule="evenodd" fill="#FFDECC" d="M46.8,91.4c-25.9,11.4-33.6,17.5-36.7,20.2
			c-4.7,4.2-7.3,19.9-10.1,33.2h58.5H117c-2.8-13.3-5.4-29-10.1-33.2c-3.1-2.7-10.5-8.7-36.4-20.1L46.8,91.4z"/>
		<path fill-rule="evenodd" clip-rule="evenodd" fill="#FFDECC" d="M71.1,68.7v28.9c-6.9,8.5-18.2,8.2-25.1,0V68.7
			C45.9,53.1,71.1,53.1,71.1,68.7z"/>
		<path fill-rule="evenodd" clip-rule="evenodd" fill="#F7C5AA" d="M71.1,68.7V88c-4.8,3.5-9.3,5.4-12.6,5.4c-3.2,0-7.8-2-12.6-5.4
			V68.7C45.9,53.1,71.1,53.1,71.1,68.7z"/>
		<path fill-rule="evenodd" clip-rule="evenodd" fill="#FFDECC" d="M26.4,44.9c2.2-0.7,5,1.8,6.3,5.6c1.3,3.8,0.5,7.6-1.7,8.3
			c-2.2,0.7-5-1.8-6.3-5.6C23.4,49.4,24.2,45.7,26.4,44.9z"/>
		<path fill-rule="evenodd" clip-rule="evenodd" fill="#FFDECC" d="M91.1,44.9c-2.2-0.7-5,1.8-6.3,5.6c-1.3,3.8-0.5,7.6,1.7,8.3
			c2.2,0.7,5-1.8,6.3-5.6C94.1,49.4,93.3,45.7,91.1,44.9z"/>
		<path fill-rule="evenodd" clip-rule="evenodd" fill="#FFDECC" d="M58.5,16.9c-42.1,0-27,51.3-24.2,55.3c3,4.5,17.4,16.4,24.2,16.4
			c6.8,0,21.2-11.9,24.2-16.4C85.5,68.1,100.6,16.9,58.5,16.9z"/>
		<path fill-rule="evenodd" clip-rule="evenodd" fill="#FFC65D" d="M49,28.4c-7.1-4.7-16.1,13-18.6,27.5c-2-12.3,0.2-38.9,0.8-44.8
			c0.5-4.5,54.1-4.3,54.6,0c0.7,5.8,3,30.1,1,42.6C84.2,42,75,23.6,68,28.4C62.2,32.5,54.8,32.3,49,28.4z"/>
		<path fill-rule="evenodd" clip-rule="evenodd" fill="#F7C5AA" d="M45,67.7c9.2,3.6,19.6,3.2,27,0C69.1,75.4,49.2,75.5,45,67.7z"/>
		<path fill-rule="evenodd" clip-rule="evenodd" fill="#F7C5AA" d="M47.7,66.2c-1.7,1.4-2.8,3.5-2.9,5.3
			C43.6,69.6,45.8,65.6,47.7,66.2z"/>
		<path fill-rule="evenodd" clip-rule="evenodd" fill="#F7C5AA" d="M69.1,66.2c1.7,1.4,2.8,3.5,2.9,5.3C73.2,69.6,71,65.6,69.1,66.2
			z"/>
		<path fill-rule="evenodd" clip-rule="evenodd" fill="#B34D1F" d="M37.1,96c-18.2,8.6-24.3,13.4-26.9,15.8C5.4,116,2.8,131.7,0,145
			h58.5H117c-2.8-13.3-5.4-29-10.1-33.2c-2.6-2.3-8.2-6.8-24.9-14.8c-0.1,0.1-0.3,0.2-0.4,0.4c-4.6,10-12.6,15.8-20.9,18.6
			c-11.6-2.3-21.5-11.3-23-19.2C37.5,96.5,37.3,96.3,37.1,96z"/>
		<path fill-rule="evenodd" clip-rule="evenodd" fill="#913E17" d="M7.2,116.4c-3,6.7-5,18.4-7.2,28.6h23.7
			C23.2,128.3,23.2,119.4,7.2,116.4z"/>
		<path fill-rule="evenodd" clip-rule="evenodd" fill="#913E17" d="M109.8,116.4c3,6.7,5,18.4,7.2,28.6H93.3
			C93.8,128.3,93.8,119.4,109.8,116.4z"/>
		<path fill-rule="evenodd" clip-rule="evenodd" fill="#913E17" d="M37.1,96c-1.7,0.8-3.3,1.6-4.8,2.3c4.4,9.2,12.4,18.5,28.5,22.2
			c13.9-4.2,21.2-12.8,25.4-21.5c-1.3-0.6-2.7-1.3-4.1-2c-0.1,0.1-0.3,0.2-0.4,0.4c-4.6,10-12.6,15.8-20.9,18.6
			c-11.6-2.3-21.5-11.3-23-19.2C37.5,96.5,37.3,96.3,37.1,96z"/>
	</g>
</g>
</svg>
