<?xml version="1.0" encoding="utf-8"?>
<!-- Generator: Adobe Illustrator 18.1.1, SVG Export Plug-In . SVG Version: 6.00 Build 0)  -->
<svg version="1.1" id="Слой_1" xmlns="http://www.w3.org/2000/svg" xmlns:xlink="http://www.w3.org/1999/xlink" x="0px" y="0px"
	 viewBox="0 0 117 145" enable-background="new 0 0 117 145" xml:space="preserve">
<g>
	<g>
		<path fill-rule="evenodd" clip-rule="evenodd" fill="#FFDECC" d="M46.8,91.6c-25.9,11.4-33.6,17.5-36.7,20.2
			C5.4,116,2.8,131.7,0,145h58.5H117c-2.8-13.3-5.4-29-10.1-33.2c-3.1-2.7-10.5-8.7-36.4-20.1L46.8,91.6z"/>
		<path fill-rule="evenodd" clip-rule="evenodd" fill="#B6DBFC" d="M46.8,91.6c-25.9,11.4-33.6,17.5-36.7,20.2
			C5.4,116,2.8,131.7,0,145h58.5H117c-2.8-13.3-5.4-29-10.1-33.2c-3.1-2.7-10.5-8.7-36.4-20.1L46.8,91.6z"/>
		<path fill-rule="evenodd" clip-rule="evenodd" fill="#FFDECC" d="M71.1,68.8v28.9c-6.9,8.5-18.2,8.2-25.1,0V68.8
			C45.9,53.2,71.1,53.2,71.1,68.8z"/>
		<path fill-rule="evenodd" clip-rule="evenodd" fill="#F7C5AA" d="M71.1,68.8v19.3c-4.8,3.5-9.3,5.4-12.6,5.4s-7.8-2-12.6-5.4V68.8
			C45.9,53.2,71.1,53.2,71.1,68.8z"/>
		<path fill-rule="evenodd" clip-rule="evenodd" fill="#FFDECC" d="M58.5,17c-42.1,0-27,51.3-24.2,55.3c3,4.5,17.4,16.4,24.2,16.4
			c6.8,0,21.2-11.9,24.2-16.4C85.5,68.3,100.6,17,58.5,17z"/>
		<path fill-rule="evenodd" clip-rule="evenodd" fill="#FFDECC" d="M26.5,50.7c2.2-0.7,5,1.8,6.3,5.6c1.3,3.8,0.5,7.6-1.7,8.3
			c-2.2,0.7-5-1.8-6.3-5.6C23.5,55.1,24.3,51.4,26.5,50.7z"/>
		<path fill-rule="evenodd" clip-rule="evenodd" fill="#FFDECC" d="M91.1,50.7c-2.2-0.7-5,1.8-6.3,5.6c-1.3,3.8-0.5,7.6,1.7,8.3
			c2.2,0.7,5-1.8,6.3-5.6C94.1,55.1,93.4,51.4,91.1,50.7z"/>
		<path fill-rule="evenodd" clip-rule="evenodd" fill="#FF690F" d="M58.6,31.6c-13,0.1-25.2-0.5-27.7,28.2
			c-6.3-22.5,2.3-46.6,27.2-46.4c25.8,0.2,35.1,24.1,28,46.5C80.3,29,70.4,31.5,58.6,31.6z"/>
		<path fill-rule="evenodd" clip-rule="evenodd" fill="#FF690F" d="M59,80.2c6.1-0.3,1,6.9,8.8,2.7c7.8-4.2,7.5-16.5,3.6-16.8
			c-3.9-0.3-7.1,2.5-12.6,2.5v-2.1c4.4-0.1,11.8-4.4,14.8-0.9c4.5,5.2,1,15-2.9,17.5c-4.4,2.9-8.9,5.4-12,5.6v-8.5
			C58.9,80.2,59,80.2,59,80.2z M58.8,68.7L58.8,68.7c-5.6,0-8.4-2.5-12.3-2.2c-3.9,0.3-5.1,12,2.7,16.2c7.7,4.2,3.7-2.6,9.5-2.5v8.5
			c-0.1,0-0.2,0-0.3,0c-2.7,0-6.6-1.7-10.5-4.3c-6.2-4.1-9-13.8-3.9-18.6c3.3-3.1,10.2,0.8,14.6,0.8l0.1,0V68.7z"/>
		<path fill-rule="evenodd" clip-rule="evenodd" fill="#B88053" d="M44.8,69.8c9.2,3.6,19.6,3.2,27,0C68.9,77.4,49,77.5,44.8,69.8z"
			/>
		<path fill-rule="evenodd" clip-rule="evenodd" fill="#B88053" d="M47.6,68.2c-1.7,1.4-2.8,3.5-2.9,5.3
			C43.5,71.6,45.6,67.6,47.6,68.2z"/>
		<path fill-rule="evenodd" clip-rule="evenodd" fill="#B88053" d="M68.9,68.2c1.7,1.4,2.8,3.5,2.9,5.3C73,71.6,70.9,67.6,68.9,68.2
			z"/>
		<polygon fill-rule="evenodd" clip-rule="evenodd" fill="#86BCEB" points="44.8,91.2 35.8,96.1 48.8,114.1 58.6,104.8 		"/>
		<polygon fill-rule="evenodd" clip-rule="evenodd" fill="#86BCEB" points="72.4,91.2 81.3,96.1 68.4,114.1 58.6,104.8 		"/>
		<path fill-rule="evenodd" clip-rule="evenodd" fill="#FFFFFF" d="M53.1,109.8l3,4.7c1.6,0,3.1,0,4.7,0l3-4.7l-5.3-5.2L53.1,109.8z
			"/>
		<polygon fill-rule="evenodd" clip-rule="evenodd" fill="#FFFFFF" points="56.1,114.5 51.8,145 65.2,145 60.9,114.5 		"/>
		<g>
			<path fill-rule="evenodd" clip-rule="evenodd" fill="#86BCEB" d="M23.8,145h2c-0.1-9-0.1-15.4-0.1-15.4S24.9,136.3,23.8,145z"/>
			<path fill-rule="evenodd" clip-rule="evenodd" fill="#86BCEB" d="M93.2,145h-2c0.1-9,0.1-15.4,0.1-15.4S92.1,136.3,93.2,145z"/>
		</g>
	</g>
</g>
</svg>
