<?xml version="1.0" encoding="utf-8"?>
<!-- Generator: Adobe Illustrator 18.1.1, SVG Export Plug-In . SVG Version: 6.00 Build 0)  -->
<svg version="1.1" id="Слой_1" xmlns="http://www.w3.org/2000/svg" xmlns:xlink="http://www.w3.org/1999/xlink" x="0px" y="0px"
	 viewBox="0 0 117 145" enable-background="new 0 0 117 145" xml:space="preserve">
<g>
	<g>
		<path fill-rule="evenodd" clip-rule="evenodd" fill="#FFC65D" d="M27.4,97.4c-4.1-42.2,7.4-61.5,31.4-61.5
			c23.9,0,36.7,21.9,30.9,61.5C71.7,108,42.8,106.3,27.4,97.4z"/>
		<path fill-rule="evenodd" clip-rule="evenodd" fill="#FFDECC" d="M68.1,104.4c-0.2,0.3-19.7,0.6-19.9,0.9
			c-6.1,8.8-19.3,12.6-29.8,15C7.9,122.7,7.5,136.1,7.5,145h101.9c0-8.9-0.2-22.2-10.9-24.6C87.9,118,73.9,113.6,68.1,104.4z"/>
		<path fill-rule="evenodd" clip-rule="evenodd" fill="#FFDECC" d="M68.7,85.7v25.2c-5.6,7.4-14.8,7.2-20.4,0V85.7
			C48.3,72.1,68.7,72.1,68.7,85.7z"/>
		<path fill-rule="evenodd" clip-rule="evenodd" fill="#F7C5AA" d="M68.7,85.7v16.9c-3.9,3-7.6,4.7-10.2,4.7
			c-2.6,0-6.3-1.7-10.2-4.7V85.7C48.3,72.1,68.7,72.1,68.7,85.7z"/>
		<path fill-rule="evenodd" clip-rule="evenodd" fill="#FFDECC" d="M58.5,103.1c-6.7,0-20.7-10.5-25-25.6
			c-4.4-15.2,3.9-37.1,25-37.1s29.4,21.8,25,37.1C79.2,92.6,65.1,103.1,58.5,103.1z"/>
		<path fill-rule="evenodd" clip-rule="evenodd" fill="#FF386A" d="M50.9,87.9c3.4-3.3,6-0.8,8-0.8c2,0,4.6-2.5,8,0.8
			C65.1,96.6,53.3,96.9,50.9,87.9z"/>
		<path fill-rule="evenodd" clip-rule="evenodd" fill="#FFFFFF" d="M52.2,88.4c1.9-0.5,11.3-0.6,13.9-0.1
			C63.9,92.3,54,92.1,52.2,88.4z"/>
		<path fill-rule="evenodd" clip-rule="evenodd" fill="#FF386A" d="M50.9,87.9c3.4-3.3,6-0.8,8-0.8c2,0,4.6-2.5,8,0.8
			C61.7,90.5,54.4,89.3,50.9,87.9z"/>
		<path fill-rule="evenodd" clip-rule="evenodd" fill="#FFDECC" d="M29.1,70.6c2.1-0.9,5.2,1.3,6.8,5.1c1.6,3.7,1.1,7.5-1,8.4
			c-2.1,0.9-5.2-1.3-6.7-5.1C26.5,75.3,26.9,71.6,29.1,70.6z"/>
		<path fill-rule="evenodd" clip-rule="evenodd" fill="#FFDECC" d="M88.1,70.6c-2.1-0.9-5.2,1.3-6.8,5.1c-1.6,3.7-1.1,7.5,1,8.4
			c2.1,0.9,5.2-1.3,6.7-5.1C90.7,75.3,90.2,71.6,88.1,70.6z"/>
		<path fill-rule="evenodd" clip-rule="evenodd" fill="#FFC65D" d="M72.4,51.6c10.8,6.9,11.4,16.2,11.8,23.3
			C89.1,68.8,89.5,47.4,72.4,51.6z"/>
		<path fill-rule="evenodd" clip-rule="evenodd" fill="#FFC65D" d="M44.8,51.6C34,58.5,33.4,67.7,32.9,74.9
			C28.1,68.8,27.7,47.4,44.8,51.6z"/>
		<path fill-rule="evenodd" clip-rule="evenodd" fill="#FFC65D" d="M31.2,58c0.9-30.9,54.3-28,54.6,0c-5.5,1.3-12.2,2.1-19.1,2.4
			c-0.4-2.8-1.2-6.3-2.6-10.8c-0.7,2.1-1.2,6.8-1.5,11c-4,0.1-8.1,0-12-0.2c-0.2-4.1-0.7-8.5-1.4-10.6c-1.3,4.2-2.1,7.6-2.5,10.3
			C40.8,59.7,35.4,59,31.2,58z"/>
		<g>
			<path fill-rule="evenodd" clip-rule="evenodd" fill="#FF690F" d="M70,68.8c6.5-0.4,10,0.8,10.7,1c0.8,0.3,0.6,2.5-0.1,2.9
				c-0.7,0.4-1.2,2.2-2.8,4.3c-1,1.4-4.6,2-7.8,2.1v-0.6c2.6-0.1,5.3-0.6,6.5-1.4c2.4-1.7,2.6-5.2,0.9-6.8c-0.9-0.9-4.1-1.1-7.3-0.9
				V68.8z M47,68.8l0.3,0c6.7,0.5,8.1,1.8,8.7,1.7c0.8-0.1,1.6-0.2,2.5-0.2s1.7,0.1,2.5,0.2c0.7,0.1,2.1-1.2,8.7-1.7l0.3,0v0.6l0,0
				c-3.2,0.2-7.4,0.9-8.2,2.8c-0.8,1.9,0.7,5.2,3,6c1,0.4,3.1,0.5,5.2,0.4v0.6c-1.8,0.1-3.4,0-4.3-0.1c-2.7-0.3-4.7-3.6-5.1-4.6
				c-0.8-2.2-3.3-2.2-4.1,0c-0.4,1-2.4,4.3-5.1,4.6c-1,0.1-2.6,0.2-4.3,0.1v-0.6c2.1,0.1,4.2,0,5.2-0.4c2.3-0.8,3.8-4.1,3-6
				c-0.8-1.9-5-2.6-8.2-2.8l0,0V68.8z M36.3,69.8c0.7-0.2,4.2-1.5,10.7-1v0.6c-3.2-0.2-6.4,0.1-7.3,0.9c-1.8,1.6-1.5,5.2,0.9,6.8
				c1.2,0.8,3.9,1.3,6.5,1.4v0.6c-3.2-0.2-6.8-0.7-7.8-2.1c-1.6-2.2-2.2-3.9-2.8-4.3C35.7,72.3,35.5,70.1,36.3,69.8z"/>
			<path fill-rule="evenodd" clip-rule="evenodd" fill="#FFDECC" d="M39.7,70.4c0.9-0.9,4.2-1.1,7.4-0.9c3.2,0.2,7.4,0.9,8.2,2.8
				c0.8,1.9-0.7,5.2-3,6c-2.3,0.8-9.6,0.5-11.7-1C38.1,75.5,37.9,72,39.7,70.4z"/>
			<path fill-rule="evenodd" clip-rule="evenodd" fill="#FFDECC" d="M77.3,70.4c-0.9-0.9-4.2-1.1-7.4-0.9c-3.2,0.2-7.4,0.9-8.2,2.8
				c-0.8,1.9,0.7,5.2,3,6c2.3,0.8,9.6,0.5,11.7-1C78.9,75.5,79.1,72,77.3,70.4z"/>
		</g>
		<path fill-rule="evenodd" clip-rule="evenodd" fill="#68C497" d="M16.1,121.1c-8.3,3.7-8.6,15.7-8.6,23.9h101.9
			c0-8.2-0.2-20.2-8.6-23.9C72.6,133,44.4,132.6,16.1,121.1z"/>
		<path fill="#9CE8C3" d="M106.4,126.3c-3.3,1.5-6.6,2.8-9.9,3.9V129c3.1-1.1,6.2-2.3,9.3-3.7C106,125.6,106.2,126,106.4,126.3
			L106.4,126.3z M96.5,143.1v-1.3c4.2-1.3,8.5-2.9,12.7-4.7c0,0.4,0.1,0.8,0.1,1.3C105.1,140.2,100.8,141.8,96.5,143.1L96.5,143.1z
			 M96.5,136.9v-1.3c3.9-1.3,7.8-2.9,11.7-4.6c0.1,0.4,0.2,0.8,0.3,1.2C104.5,133.9,100.5,135.5,96.5,136.9z M96.5,130.3
			c-12.7,4.4-25.3,6.6-38,6.5v-1.2c12.7,0,25.3-2.1,38-6.6V130.3L96.5,130.3z M96.5,135.6c-12.7,4.3-25.3,6.4-38,6.4v1.2
			c12.7,0,25.3-2,38-6.3V135.6L96.5,135.6z M96.5,141.8v1.3c-2.2,0.7-4.5,1.3-6.7,1.9h-5.3C88.5,144.1,92.5,143.1,96.5,141.8z
			 M58.5,136.8L58.5,136.8c-12.6,0-25.1-2.3-37.7-6.5V129c12.5,4.3,25.1,6.5,37.6,6.6h0V136.8L58.5,136.8z M58.5,142L58.5,142
			c-12.6,0-25.1-2.2-37.7-6.4v1.3c12.5,4.1,25.1,6.3,37.6,6.3h0V142L58.5,142z M20.9,143.1v-1.3c4.1,1.3,8.2,2.3,12.3,3.2h-5.4
			C25.5,144.4,23.2,143.8,20.9,143.1z M20.9,130.3c-3.4-1.2-6.8-2.5-10.3-3.9c0.2-0.4,0.4-0.7,0.6-1c3.2,1.4,6.4,2.6,9.6,3.7V130.3
			L20.9,130.3z M20.9,135.6v1.3c-4.1-1.4-8.2-2.9-12.3-4.7c0.1-0.4,0.2-0.8,0.3-1.2C12.9,132.7,16.9,134.3,20.9,135.6L20.9,135.6z
			 M20.9,141.8v1.3c-4.4-1.3-8.8-2.9-13.2-4.7c0-0.4,0.1-0.8,0.1-1.3C12.2,138.9,16.5,140.5,20.9,141.8z"/>
		<g>
			<path fill-rule="evenodd" clip-rule="evenodd" fill="#388761" d="M25.8,145c0.1-2,0.2-4.4,0.7-7.4c-0.9,2.9-1.5,5.3-2,7.4H25.8z"
				/>
			<path fill-rule="evenodd" clip-rule="evenodd" fill="#388761" d="M91.2,145c-0.1-2-0.2-4.4-0.7-7.4c0.9,2.9,1.5,5.3,2,7.4H91.2z"
				/>
		</g>
	</g>
</g>
</svg>
