<?xml version="1.0" encoding="utf-8"?>
<!-- Generator: Adobe Illustrator 18.1.1, SVG Export Plug-In . SVG Version: 6.00 Build 0)  -->
<svg version="1.1" id="Слой_1" xmlns="http://www.w3.org/2000/svg" xmlns:xlink="http://www.w3.org/1999/xlink" x="0px" y="0px"
	 viewBox="0 0 117 145" enable-background="new 0 0 117 145" xml:space="preserve">
<g>
	<g>
		<path fill-rule="evenodd" clip-rule="evenodd" fill="#FF690F" d="M46.8,91.6c-25.9,11.4-33.6,17.5-36.7,20.2
			C5.4,116,2.8,131.7,0,145h58.5H117c-2.8-13.3-5.4-29-10.1-33.2c-3.1-2.7-10.5-8.7-36.4-20.1L46.8,91.6z"/>
		<path fill-rule="evenodd" clip-rule="evenodd" fill="#FFDECC" d="M71.1,68.8v28.9c-6.9,8.5-18.2,8.2-25.1,0V68.8
			C45.9,53.2,71.1,53.2,71.1,68.8z"/>
		<path fill-rule="evenodd" clip-rule="evenodd" fill="#F7C5AA" d="M71.1,68.8v19.3c-4.8,3.5-9.3,5.4-12.6,5.4s-7.8-2-12.6-5.4V68.8
			C45.9,53.2,71.1,53.2,71.1,68.8z"/>
		<path fill-rule="evenodd" clip-rule="evenodd" fill="#FFDECC" d="M58.5,17c-42.1,0-27,51.3-24.2,55.3c3,4.5,17.4,16.4,24.2,16.4
			c6.8,0,21.2-11.9,24.2-16.4C85.5,68.3,100.6,17,58.5,17z"/>
		<path fill-rule="evenodd" clip-rule="evenodd" fill="#FFFFFF" d="M45,67.9c3.5,2.8,23.5,2.6,27,0C68.9,82.5,49.1,83,45,67.9z"/>
		<path fill-rule="evenodd" clip-rule="evenodd" fill="#FFDECC" d="M26.1,47.4c2.2-0.7,5,1.8,6.3,5.6c1.3,3.9,0.5,7.6-1.7,8.3
			c-2.2,0.7-5-1.8-6.3-5.6C23.1,51.9,23.9,48.1,26.1,47.4z"/>
		<path fill-rule="evenodd" clip-rule="evenodd" fill="#FFDECC" d="M90.8,47.4c-2.2-0.7-5,1.8-6.3,5.6c-1.3,3.9-0.5,7.6,1.7,8.3
			c2.2,0.7,5-1.8,6.3-5.6C93.8,51.9,93,48.1,90.8,47.4z"/>
		<path fill-rule="evenodd" clip-rule="evenodd" fill="#CC7C54" d="M58.5,80.2c4.4,0.5,2.1,5.9,6.2,3.9c4.4-2.1,12.2-6.5,15.5-10.7
			c3.2-4.2,3.7-6,4.8-16.7c1.2-10.7-0.2-29.9-7.1-29.5c-6.9,0.5-11.3,1.6-19.4,1.6V17C88,17,87.7,32.9,87.6,47.7
			c0,11.8-3.7,22.9-4.9,24.7c-3,4.5-17.4,16.4-24.2,16.4V80.2z M57.8,80.2c0.2,0,0.5,0,0.7,0v8.6c-6.8,0-21.2-11.9-24.2-16.4
			c-1.3-1.9-5.4-14.4-4.9-27C30,31.3,28.4,17,58.5,17v11.9c-8.1,0-12.5-1.2-19.4-1.6c-6.9-0.5-8.3,18.8-7.1,29.5
			c1.2,10.7,1.6,12.5,4.8,16.7c3.2,4.2,11.1,8.6,15.5,10.7S52.5,80.2,57.8,80.2z"/>
		<path fill-rule="evenodd" clip-rule="evenodd" fill="#FFFFFF" d="M44.8,91.2l-8.9,4.9l12.9,18l9.8-9.4L44.8,91.2z"/>
		<path fill-rule="evenodd" clip-rule="evenodd" fill="#FFFFFF" d="M72.4,91.2l8.9,4.9l-12.9,18l-9.8-9.4L72.4,91.2z"/>
		<g>
			<path fill-rule="evenodd" clip-rule="evenodd" fill="#BA4F0D" d="M23.8,145h2c-0.1-9-0.1-15.4-0.1-15.4S24.9,136.3,23.8,145z"/>
			<path fill-rule="evenodd" clip-rule="evenodd" fill="#BA4F0D" d="M93.2,145h-2c0.1-9,0.1-15.4,0.1-15.4S92.1,136.3,93.2,145z"/>
		</g>
	</g>
</g>
</svg>
