<?xml version="1.0" encoding="utf-8"?>
<!-- Generator: Adobe Illustrator 18.1.1, SVG Export Plug-In . SVG Version: 6.00 Build 0)  -->
<svg version="1.1" id="Слой_1" xmlns="http://www.w3.org/2000/svg" xmlns:xlink="http://www.w3.org/1999/xlink" x="0px" y="0px"
	 viewBox="0 0 117 145" enable-background="new 0 0 117 145" xml:space="preserve">
<g>
	<g>
		<path fill-rule="evenodd" clip-rule="evenodd" fill="#4D1B02" d="M52.1,31.6c0.8,0,1.6,0.2,2.3,0.5c1-2.3,3.2-3.8,5.7-3.8
			c3.2,0,5.9,2.6,6.3,5.9c1.1-0.8,2.4-1.3,3.8-1.3c3.4,0,6.2,2.9,6.3,6.6c0.9-0.5,1.8-0.7,2.9-0.7c3.5,0,6.3,3,6.3,6.7
			c0,1-0.2,2-0.6,2.9c0.4-0.1,0.8-0.1,1.2-0.1c3.5,0,6.3,3,6.3,6.7c0,1.5-0.4,2.8-1.2,3.9c0.9,1.2,1.5,2.7,1.5,4.3
			c0,2-0.8,3.8-2.1,5.1c1.1,1.2,1.8,2.9,1.8,4.8c0,2.8-1.6,5.2-3.9,6.2c1,1.2,1.6,2.8,1.6,4.5c0,3.1-1.9,5.7-4.5,6.5
			c0.1,0.6,0.2,1.2,0.2,1.8c0,3.7-2.9,7.8-6.3,6.7c0.3,2.9-4.2,8.1-8.7,5.1c-2.4,7.8-18.6,6.5-21.8,0c-3.4,3.7-9.2,0.7-9.3-3.6
			c-3.7,0.1-6.5-3.1-6.5-6.7c0-0.6,0.1-1.1,0.2-1.6c-3-0.5-5.4-3.3-5.4-6.7c0-0.7,0.1-1.4,0.3-2.1c-2.7-0.8-4.6-3.4-4.6-6.5
			c0-0.8,0.1-1.6,0.4-2.4C22.9,73.1,22,71.2,22,69c0-2,0.8-3.8,2.1-5.1c-1-1.2-1.6-2.7-1.6-4.4c0-2.7,1.4-4.9,3.5-6
			c-0.2-0.7-0.4-1.4-0.4-2.2c0-3.7,2.8-6.7,6.3-6.7c0.2,0,0.4,0,0.6,0c0.7-2.3,2.6-4.1,4.9-4.5c0-0.1,0-0.3,0-0.4
			c0-3.7,2.8-6.7,6.3-6.7c1.3,0,2.5,0.4,3.5,1.1C48.5,32.5,50.2,31.6,52.1,31.6z"/>
		<path fill-rule="evenodd" clip-rule="evenodd" fill="#E6A875" d="M68.1,104.4c-0.2,0.3-19.7,0.6-19.9,0.9
			c-6.1,8.8-19.3,12.6-29.8,15C7.9,122.7,7.5,136.1,7.5,145h101.9c0-8.9-0.2-22.2-10.9-24.6C87.9,118,73.9,113.6,68.1,104.4z"/>
		<path fill-rule="evenodd" clip-rule="evenodd" fill="#E6A875" d="M68.7,85.7v25.2c-5.6,7.4-14.8,7.2-20.4,0V85.7
			C48.3,72.1,68.7,72.1,68.7,85.7z"/>
		<path fill-rule="evenodd" clip-rule="evenodd" fill="#B88053" d="M68.7,85.7v16.9c-3.9,3-7.6,4.7-10.2,4.7
			c-2.6,0-6.3-1.7-10.2-4.7V85.7C48.3,72.1,68.7,72.1,68.7,85.7z"/>
		<path fill-rule="evenodd" clip-rule="evenodd" fill="#E6A875" d="M58.5,103.1c-6.7,0-20.7-10.5-25-25.6
			c-4.4-15.2,3.9-37.1,25-37.1s29.4,21.8,25,37.1C79.2,92.6,65.2,103.1,58.5,103.1z"/>
		<path fill-rule="evenodd" clip-rule="evenodd" fill="#FF698F" d="M48.2,87.7c4.5-3.3,9.2-1.3,10.7-1.3c1.6,0,6-2,10.5,1.3
			C67.2,96.7,51.6,97,48.2,87.7z"/>
		<path fill-rule="evenodd" clip-rule="evenodd" fill="#A31F40" d="M48.5,87.6c4.2-1.5,7.8,1.4,10.5,1.4c2.6,0,6.3-3.9,10.5-1.3
			C64.5,92.8,53.4,92.5,48.5,87.6z"/>
		<path fill-rule="evenodd" clip-rule="evenodd" fill="#FFFFFF" d="M48.5,87.6c4.5-1.9,7.8-0.5,10.4-0.5c2.6,0,6.3-1.3,10.8,0.5
			C64.8,90.4,53.4,90.3,48.5,87.6z"/>
		<path fill-rule="evenodd" clip-rule="evenodd" fill="#FF698F" d="M48.3,87.6c4.5-3.3,8.3-1,10.9-1c2.6,0,5.8-2.3,10.2,1
			c0,0,0,0.1-0.1,0.1C63.7,87.7,54.3,87.6,48.3,87.6z"/>
		<path fill-rule="evenodd" clip-rule="evenodd" fill="#E6A875" d="M29.5,71.6c2.1-0.9,5.2,1.3,6.8,5.1c1.6,3.7,1.1,7.5-1,8.4
			c-2.1,0.9-5.2-1.3-6.8-5.1C26.9,76.3,27.3,72.5,29.5,71.6z"/>
		<path fill-rule="evenodd" clip-rule="evenodd" fill="#E6A875" d="M88.5,71.6c-2.1-0.9-5.2,1.3-6.8,5.1c-1.6,3.7-1.1,7.5,1,8.4
			c2.1,0.9,5.2-1.3,6.8-5.1C91.1,76.3,90.6,72.5,88.5,71.6z"/>
		<path fill-rule="evenodd" clip-rule="evenodd" fill="#4D1B02" d="M82.1,77.3c19.6-25.7-18.1-40.5-28-40.5
			c-8.5,0-34.8,24-19.1,42.3c-0.1-3.2,0.1-8.3,4.9-10c3.6,0,8-0.2,8.1-3.7c0.8,0.3,1.6,0.5,2.4,0.5c3,0,5.4-2.2,6.1-5.2
			c0.1,0,0.2,0,0.3,0c2.2,0,4.2-1.3,5.3-3.2c1-0.1,1.9-0.4,2.8-1c0.9,1.7,2.5,3,4.4,3.3c0.6,3,3.6,7.9,9.1,5.4
			C81.2,69.3,82.4,73.3,82.1,77.3z"/>
		<path fill-rule="evenodd" clip-rule="evenodd" fill="#FFC65D" d="M17.8,120.5c5.4,5.6,9.8,13.9,9.9,24.5h63.7
			c0.3-8.3,2.3-17.9,7.1-24.6l0.1-0.1c-0.5-0.1-0.9-0.2-1.4-0.3c-7.7,11.8-20.2,20.4-39.7,20.4c-18.8,0-30.3-8.8-37.9-20.3
			c-0.3,0.1-0.7,0.2-1,0.2C18.2,120.4,18,120.5,17.8,120.5z"/>
		<g>
			<path fill-rule="evenodd" clip-rule="evenodd" fill="#FFFFFF" d="M43.1,112.6c1.1,0,1.9-0.9,1.9-2c0-1.1-0.9-2-1.9-2
				c-1.1,0-1.9,0.9-1.9,2C41.1,111.7,42,112.6,43.1,112.6z"/>
			<ellipse fill-rule="evenodd" clip-rule="evenodd" fill="#FFFFFF" cx="45.5" cy="113.8" rx="1.9" ry="2"/>
			<ellipse fill-rule="evenodd" clip-rule="evenodd" fill="#FFFFFF" cx="48.8" cy="116.4" rx="1.9" ry="2"/>
			<path fill-rule="evenodd" clip-rule="evenodd" fill="#FFFFFF" d="M52.4,120.1c1.1,0,1.9-0.9,1.9-2c0-1.1-0.9-2-1.9-2
				s-1.9,0.9-1.9,2C50.4,119.3,51.3,120.1,52.4,120.1z"/>
			<path fill-rule="evenodd" clip-rule="evenodd" fill="#FFFFFF" d="M56.3,121.1c1.1,0,1.9-0.9,1.9-2s-0.9-2-1.9-2
				c-1.1,0-1.9,0.9-1.9,2S55.3,121.1,56.3,121.1z"/>
			<path fill-rule="evenodd" clip-rule="evenodd" fill="#FFFFFF" d="M60.5,121.1c1.1,0,2-0.9,2-2c0-1.1-0.9-2-2-2
				c-1.1,0-1.9,0.9-1.9,2C58.5,120.2,59.4,121.1,60.5,121.1z"/>
			<path fill-rule="evenodd" clip-rule="evenodd" fill="#FFFFFF" d="M64.6,120.2c1.1,0,1.9-0.9,1.9-2s-0.9-2-1.9-2
				c-1.1,0-1.9,0.9-1.9,2S63.5,120.2,64.6,120.2z"/>
			<path fill-rule="evenodd" clip-rule="evenodd" fill="#FFFFFF" d="M68.4,118.3c1.1,0,1.9-0.9,1.9-2s-0.9-2-1.9-2
				c-1.1,0-1.9,0.9-1.9,2S67.3,118.3,68.4,118.3z"/>
			<path fill-rule="evenodd" clip-rule="evenodd" fill="#FFFFFF" d="M71.5,115.7c1.1,0,1.9-0.9,1.9-2c0-1.1-0.9-2-1.9-2
				c-1.1,0-1.9,0.9-1.9,2C69.5,114.8,70.4,115.7,71.5,115.7z"/>
			<path fill-rule="evenodd" clip-rule="evenodd" fill="#FFFFFF" d="M74,112.5c1.1,0,1.9-0.9,1.9-2c0-1.1-0.9-2-1.9-2
				c-1.1,0-1.9,0.9-1.9,2C72,111.7,72.9,112.5,74,112.5z"/>
			<path fill-rule="evenodd" clip-rule="evenodd" fill="#FFFFFF" d="M34.1,85.7c1.1,0,2-0.9,2-2s-0.9-2-2-2c-1.1,0-1.9,0.9-1.9,2
				S33,85.7,34.1,85.7z"/>
			<path fill-rule="evenodd" clip-rule="evenodd" fill="#FFFFFF" d="M83.4,85.7c1.1,0,2-0.9,2-2s-0.9-2-2-2c-1.1,0-1.9,0.9-1.9,2
				S82.3,85.7,83.4,85.7z"/>
		</g>
	</g>
</g>
</svg>
