<?xml version="1.0" encoding="utf-8"?>
<!-- Generator: Adobe Illustrator 18.1.1, SVG Export Plug-In . SVG Version: 6.00 Build 0)  -->
<svg version="1.1" id="Слой_1" xmlns="http://www.w3.org/2000/svg" xmlns:xlink="http://www.w3.org/1999/xlink" x="0px" y="0px"
	 viewBox="0 0 117 145" enable-background="new 0 0 117 145" xml:space="preserve">
<g>
	<g>
		<path fill-rule="evenodd" clip-rule="evenodd" fill="#FF386A" d="M46.8,92.3c-25.9,11.3-33.6,17.4-36.7,20.1
			c-4.7,4.2-7.3,19.8-10.1,33h58.5H117c-2.8-13.2-5.4-28.8-10.1-33c-3.1-2.7-10.5-8.6-36.4-19.9L46.8,92.3z"/>
		<path fill-rule="evenodd" clip-rule="evenodd" fill="#FFDECC" d="M71.1,69.7v28.7c-3.5,4.4-8.1,7.1-12.6,7.3
			c-4.7,0.2-9.3-2.3-12.6-7.3V69.7C45.9,54.2,71.1,54.2,71.1,69.7z"/>
		<path fill-rule="evenodd" clip-rule="evenodd" fill="#F7C5AA" d="M71.1,69.7v19.2c-4.8,3.5-9.3,5.4-12.6,5.4
			c-3.2,0-7.8-1.9-12.6-5.4V69.7C45.9,54.2,71.1,54.2,71.1,69.7z"/>
		<path fill-rule="evenodd" clip-rule="evenodd" fill="#FFDECC" d="M58.5,18.2c-42.1,0-27,50.9-24.2,55c3,4.5,17.4,16.3,24.2,16.3
			c6.8,0,21.2-11.9,24.2-16.3C85.5,69.2,100.6,18.2,58.5,18.2z"/>
		<path fill-rule="evenodd" clip-rule="evenodd" fill="#F7C5AA" d="M69.7,74.1c-9.9,0.5-19.6-3.2-25.6-8.6
			C44.5,73.7,63.3,80,69.7,74.1z"/>
		<path fill-rule="evenodd" clip-rule="evenodd" fill="#F7C5AA" d="M46.7,64.8c-2.1,0.8-3.7,2.4-4.5,4.1
			C41.8,66.6,45,63.6,46.7,64.8z"/>
		<path fill-rule="evenodd" clip-rule="evenodd" fill="#CC7C54" d="M48.8,28.3c-9.4-0.1-16.1,3.4-19.1,12.1
			c0.2-6.5,0.2-16.7,0.9-23.7C31.1,12.2,34.5,6.1,44,4.2c2-0.4-5,4.6-2.9,3.8c4.6-1.7,9.5-4.5,13.7-5c2.9-0.4-4.2,5.2-1.9,4.2
			C59.1,4.5,63.7,1.6,68,1.5c2.6-0.1-8.2,6.1-6.4,5.5C71.3,3.7,74.3,1.1,79,0.3c1.7-0.3-11.9,8.7-5.7,7c6.9-1.9,11.3-6.3,14.2-6
			c2.9,0.4-2.8,4.1-1.7,9.1c1.2,5.7,0.9,21.3,1.2,29.8C84,31.7,76.4,27.8,67.9,28.3C60.8,28.6,55.7,28.3,48.8,28.3z"/>
		
			<ellipse transform="matrix(-0.3126 -0.9499 0.9499 -0.3126 -15.711 101.2403)" fill-rule="evenodd" clip-rule="evenodd" fill="#FFDECC" cx="28.8" cy="56.3" rx="7.3" ry="4.2"/>
		
			<ellipse transform="matrix(0.3126 -0.9499 0.9499 0.3126 7.5998 123.1129)" fill-rule="evenodd" clip-rule="evenodd" fill="#FFDECC" cx="88.9" cy="56.3" rx="7.3" ry="4.2"/>
		<g>
			<polygon fill-rule="evenodd" clip-rule="evenodd" fill="#FFA8BE" points="45.9,92.7 35.8,97.1 48.7,115 58.5,105.7 			"/>
			<polygon fill-rule="evenodd" clip-rule="evenodd" fill="#FFA8BE" points="71.1,92.7 81.2,97.1 68.3,115 58.5,105.7 			"/>
		</g>
		<path fill-rule="evenodd" clip-rule="evenodd" fill="#FFA8BE" d="M7.2,117c-3,6.7-5,18.3-7.2,28.5h23.7
			C23.2,128.8,23.2,120,7.2,117z"/>
		<path fill-rule="evenodd" clip-rule="evenodd" fill="#FFA8BE" d="M109.8,117c3,6.7,5,18.3,7.2,28.5H93.3
			C93.8,128.8,93.8,120,109.8,117z"/>
		<path fill-rule="evenodd" clip-rule="evenodd" fill="#FFDECC" d="M114.8,134.7c0.3,1.7,1.9,9.1,2.2,10.7H93.3
			c0.1-1.8,0.1-3.4,0.2-5L114.8,134.7z"/>
		<path fill-rule="evenodd" clip-rule="evenodd" fill="#FFDECC" d="M2.5,133.3C2.2,135,0.3,143.8,0,145.4h23.7
			c-0.1-1.8-0.1-3.4-0.2-5L2.5,133.3z"/>
	</g>
</g>
</svg>
