<?xml version="1.0" encoding="utf-8"?>
<!-- Generator: Adobe Illustrator 18.1.1, SVG Export Plug-In . SVG Version: 6.00 Build 0)  -->
<svg version="1.1" id="Слой_1" xmlns="http://www.w3.org/2000/svg" xmlns:xlink="http://www.w3.org/1999/xlink" x="0px" y="0px"
	 viewBox="0 0 117 145" enable-background="new 0 0 117 145" xml:space="preserve">
<g>
	<g>
		<path fill-rule="evenodd" clip-rule="evenodd" fill="#CC7C54" d="M33.2,131.1C24.3,93.6,19.6,38,57.9,38
			c38.3,0,36.3,55.1,27.1,94.2C67,142.8,48.6,139.9,33.2,131.1z"/>
		<path fill-rule="evenodd" clip-rule="evenodd" fill="#FFDECC" d="M68.1,104.4c-0.2,0.3-19.7,0.6-19.9,0.9
			c-6.1,8.8-19.3,12.6-29.8,15C7.9,122.7,7.5,136,7.5,144.9h101.9c0-8.9-0.2-22.2-10.9-24.6C87.9,117.9,73.9,113.5,68.1,104.4z"/>
		<path fill-rule="evenodd" clip-rule="evenodd" fill="#FFDECC" d="M68.7,85.6v25.2c-5.6,7.4-14.8,7.2-20.4,0V85.6
			C48.3,72,68.7,72,68.7,85.6z"/>
		<path fill-rule="evenodd" clip-rule="evenodd" fill="#F7C5AA" d="M68.7,85.6v16.9c-3.9,3-7.6,4.7-10.2,4.7
			c-2.6,0-6.3-1.7-10.2-4.7V85.6C48.3,72,68.7,72,68.7,85.6z"/>
		<path fill-rule="evenodd" clip-rule="evenodd" fill="#FFDECC" d="M58.5,103c-6.7,0-20.7-10.5-25-25.6c-4.4-15.2,3.9-37.1,25-37.1
			s29.4,21.8,25,37.1C79.2,92.5,65.2,103,58.5,103z"/>
		<path fill-rule="evenodd" clip-rule="evenodd" fill="#FF386A" d="M50.9,87.9c3.4-3.3,6-0.8,8-0.8c2,0,4.6-2.5,8,0.8
			C65.1,96.6,53.3,96.8,50.9,87.9z"/>
		<path fill-rule="evenodd" clip-rule="evenodd" fill="#C9204A" d="M50.9,87.9c3.4-3.3,6-0.8,8-0.8c2,0,4.6-2.5,8,0.8
			C61.7,90.4,54.4,89.2,50.9,87.9z"/>
		<path fill-rule="evenodd" clip-rule="evenodd" fill="#FFDECC" d="M29.5,73.8c2.1-0.9,5.2,1.3,6.8,5.1c1.6,3.7,1.1,7.5-1,8.4
			c-2.1,0.9-5.2-1.3-6.8-5.1C26.9,78.5,27.3,74.8,29.5,73.8z"/>
		<path fill-rule="evenodd" clip-rule="evenodd" fill="#FFDECC" d="M87,73.8c-2.1-0.9-5.2,1.3-6.7,5.1c-1.6,3.7-1.1,7.5,1,8.4
			c2.1,0.9,5.2-1.3,6.8-5.1C89.6,78.5,89.1,74.8,87,73.8z"/>
		<path fill-rule="evenodd" clip-rule="evenodd" fill="#CC7C54" d="M84.3,77.1c5.2-28.6-11.6-37.6-25.8-37.6
			c-15.9,0-32.4,12.3-24.8,38.6c15.2-0.8,29.1-9.8,42.5-27.7C78.5,59.4,80.1,71.3,84.3,77.1z"/>
		<g>
			<path fill-rule="evenodd" clip-rule="evenodd" fill="#F7C5AA" d="M25.8,144.9c0.1-2,0.2-4.4,0.7-7.4c-0.9,2.9-1.5,5.3-2,7.4H25.8
				z"/>
			<path fill-rule="evenodd" clip-rule="evenodd" fill="#F7C5AA" d="M91.2,144.9c-0.1-2-0.2-4.4-0.7-7.4c0.9,2.9,1.5,5.3,2,7.4H91.2
				z"/>
		</g>
		<path fill-rule="evenodd" clip-rule="evenodd" fill="#FF386A" d="M48.1,105.7C43.9,130.6,30,136.1,30.8,145l55.5-0.1
			c1-7.5-14.2-17.2-17.3-39.3C65.7,111.8,51.3,111.9,48.1,105.7z"/>
	</g>
</g>
</svg>
