<?xml version="1.0" encoding="utf-8"?>
<!-- Generator: Adobe Illustrator 18.1.1, SVG Export Plug-In . SVG Version: 6.00 Build 0)  -->
<svg version="1.1" id="Слой_1" xmlns="http://www.w3.org/2000/svg" xmlns:xlink="http://www.w3.org/1999/xlink" x="0px" y="0px"
	 viewBox="0 0 117 145" enable-background="new 0 0 117 145" xml:space="preserve">
<g>
	<g>
		<path fill-rule="evenodd" clip-rule="evenodd" fill="#802D04" d="M79.5,14.7c6.2,1,9.6,5.3,11.1,11.1c3.8,15.1-4.2,47.8-31.8,48.2
			c-14.2,0.2-24.5-3.4-28.2-15.1c-3.7-11.6-5.3-30.3,2.9-40.8C43.6,4.9,65,4.7,79.5,14.7z"/>
		<path fill-rule="evenodd" clip-rule="evenodd" fill="#FFD16E" d="M46.8,91.6c-25.9,11.4-33.6,17.5-36.7,20.2
			C5.4,116,2.8,131.7,0,145h58.5H117c-2.8-13.3-5.4-29-10.1-33.2c-3.1-2.7-10.5-8.7-36.4-20.1L46.8,91.6z"/>
		<path fill-rule="evenodd" clip-rule="evenodd" fill="#FFDECC" d="M71.1,68.8v28.9c-6.9,8.5-18.2,8.2-25.1,0V68.8
			C45.9,53.2,71.1,53.2,71.1,68.8z"/>
		<path fill-rule="evenodd" clip-rule="evenodd" fill="#F7C5AA" d="M71.1,68.8v19.3c-4.8,3.5-9.3,5.4-12.6,5.4s-7.8-2-12.6-5.4V68.8
			C45.9,53.2,71.1,53.2,71.1,68.8z"/>
		<path fill-rule="evenodd" clip-rule="evenodd" fill="#FFDECC" d="M58.5,17c-42.1,0-27,51.3-24.2,55.3c3,4.5,17.4,16.4,24.2,16.4
			s21.2-11.9,24.2-16.4C85.5,68.3,100.6,17,58.5,17z"/>
		<path fill-rule="evenodd" clip-rule="evenodd" fill="#F7C5AA" d="M69.7,73.2c-9.9,0.5-19.6-3.2-25.6-8.6
			C44.5,72.8,63.3,79.2,69.7,73.2z"/>
		<path fill-rule="evenodd" clip-rule="evenodd" fill="#F7C5AA" d="M46.7,63.8c-2.1,0.8-3.7,2.4-4.5,4.1
			C41.8,65.7,45,62.6,46.7,63.8z"/>
		<path fill-rule="evenodd" clip-rule="evenodd" fill="#FFDECC" d="M26.1,45.1c2.2-0.7,5,1.8,6.3,5.6c1.3,3.8,0.5,7.6-1.7,8.3
			c-2.2,0.7-5-1.8-6.3-5.6C23.1,49.5,23.9,45.8,26.1,45.1z"/>
		<path fill-rule="evenodd" clip-rule="evenodd" fill="#FFDECC" d="M90.8,45.1c-2.2-0.7-5,1.8-6.3,5.6c-1.3,3.8-0.5,7.6,1.7,8.3
			c2.2,0.7,5-1.8,6.3-5.6C93.8,49.5,93,45.8,90.8,45.1z"/>
		<path fill-rule="evenodd" clip-rule="evenodd" fill="#802D04" d="M79.2,29.8c-7.4,4.6-16.2,3-12.8-1c3.4-4-0.3-1.2-7,1.7
			c-6.7,2.9-14.4,2.4-9.8,0c5.5-3-16-5-20,26C23.2,33.9,33.9,15.1,58,14c25.8-1.1,36.2,19.4,29.1,41.7
			C87.6,43.7,84.6,35.7,79.2,29.8z"/>
		<path fill-rule="evenodd" clip-rule="evenodd" fill="#FFFFFF" d="M44.8,91.2l-8.9,4.9l12.9,18l9.8-9.4L44.8,91.2z"/>
		<path fill-rule="evenodd" clip-rule="evenodd" fill="#FFFFFF" d="M72.4,91.2l8.9,4.9l-12.9,18l-9.8-9.4L72.4,91.2z"/>
		<path fill-rule="evenodd" clip-rule="evenodd" fill="#FF386A" d="M53.1,109.8l3,4.7c1.6,0,3.1,0,4.7,0l3-4.7l-5.3-5.2L53.1,109.8z
			"/>
		<polygon fill-rule="evenodd" clip-rule="evenodd" fill="#FF386A" points="56.1,114.5 51.8,145 65.2,145 60.9,114.5 		"/>
		<g>
			<path fill-rule="evenodd" clip-rule="evenodd" fill="#BA8D3A" d="M23.8,145h2c-0.1-9-0.1-15.4-0.1-15.4S24.9,136.3,23.8,145z"/>
			<path fill-rule="evenodd" clip-rule="evenodd" fill="#BA8D3A" d="M93.2,145h-2c0.1-9,0.1-15.4,0.1-15.4S92.1,136.3,93.2,145z"/>
		</g>
	</g>
</g>
</svg>
