<?xml version="1.0" encoding="utf-8"?>
<!-- Generator: Adobe Illustrator 18.1.1, SVG Export Plug-In . SVG Version: 6.00 Build 0)  -->
<svg version="1.1" id="Слой_1" xmlns="http://www.w3.org/2000/svg" xmlns:xlink="http://www.w3.org/1999/xlink" x="0px" y="0px"
	 viewBox="0 0 117 145" enable-background="new 0 0 117 145" xml:space="preserve">
<g>
	<g>
		<path fill-rule="evenodd" clip-rule="evenodd" fill="#A2400F" d="M78.7,45.8c3.4-1.6,12.9,8.8,9.9,23.5
			c-13.3,63.5-18.3,57.3-30.2,57.3c-11.2,0-14.2,1.8-28.8-54.9C26.4,59.2,33,47.2,43.4,41.5C53.7,35.7,68.1,34.1,78.7,45.8z"/>
		<path fill-rule="evenodd" clip-rule="evenodd" fill="#FFDECC" d="M68.1,104.4c-0.2,0.3-19.7,0.6-19.9,0.9
			c-6.1,8.8-19.3,12.6-29.8,15C7.9,122.7,7.5,136.1,7.5,145h101.9c0-8.9-0.2-22.2-10.9-24.6C87.9,118,73.9,113.6,68.1,104.4z"/>
		<path fill-rule="evenodd" clip-rule="evenodd" fill="#FFDECC" d="M68.7,85.7v25.2c-5.6,7.4-14.8,7.2-20.4,0V85.7
			C48.3,72.1,68.7,72.1,68.7,85.7z"/>
		<path fill-rule="evenodd" clip-rule="evenodd" fill="#F7C5AA" d="M68.7,85.7v16.9c-3.9,3-7.6,4.7-10.2,4.7
			c-2.6,0-6.3-1.7-10.2-4.7V85.7C48.3,72.1,68.7,72.1,68.7,85.7z"/>
		<path fill-rule="evenodd" clip-rule="evenodd" fill="#FFDECC" d="M58.5,103.1c-6.6,0-20.7-10.5-25-25.6
			c-4.4-15.2,3.9-37.1,25-37.1c8.6,0,15.1,3.6,19.4,8.9c6.4,7.7,8.2,19.1,5.6,28.2C79.2,92.6,65.2,103.1,58.5,103.1z"/>
		<path fill-rule="evenodd" clip-rule="evenodd" fill="#FF386A" d="M50.5,87.9c3.4-3.3,6-0.8,8-0.8c2,0,4.6-2.5,8,0.8
			C64.7,96.6,52.9,96.9,50.5,87.9z"/>
		<path fill-rule="evenodd" clip-rule="evenodd" fill="#C9204A" d="M50.5,87.9c3.4-3.3,6-0.8,8-0.8c2,0,4.6-2.5,8,0.8
			C61.3,90.5,54,89.3,50.5,87.9z"/>
		<path fill-rule="evenodd" clip-rule="evenodd" fill="#FFDECC" d="M28.8,71.6c2.1-0.9,5.2,1.3,6.8,5.1s1.1,7.5-1,8.4
			c-2.1,0.9-5.2-1.3-6.8-5.1C26.2,76.3,26.6,72.5,28.8,71.6z"/>
		<path fill-rule="evenodd" clip-rule="evenodd" fill="#FFDECC" d="M87.8,71.6c-2.1-0.9-5.2,1.3-6.7,5.1c-1.6,3.7-1.1,7.5,1,8.4
			c2.1,0.9,5.2-1.3,6.8-5.1C90.4,76.3,89.9,72.5,87.8,71.6z"/>
		<path fill-rule="evenodd" clip-rule="evenodd" fill="#A2400F" d="M82.7,80c0,0-0.6-15.2-4.8-20.9c-7.5,16.7-35-0.6-42.2,24.2
			c-6.6-11.6-3.8-25.6,0.7-32.2c8.8-12.7,27.7-15.6,40.6-4C86,55.2,88,68.9,82.7,80z"/>
		<path fill="#68C497" d="M13,123.2c10.7,5.4,27.7,9.1,45.5,9.2c15.9,0.1,32.4-2.5,45.5-9.4c1,0.9,1.7,1.9,2.4,3.1
			c-1.2,0.6-2.4,1.3-3.7,1.8c-5.1,2.9-11.8,8.4-12.2,17H26.8c-0.2-8.6-8.1-14.5-13.4-17.3c-1-0.4-1.9-0.9-2.8-1.3
			C11.3,125.2,12.1,124.1,13,123.2z"/>
	</g>
</g>
</svg>
