<?xml version="1.0" encoding="utf-8"?>
<!-- Generator: Adobe Illustrator 18.1.1, SVG Export Plug-In . SVG Version: 6.00 Build 0)  -->
<svg version="1.1" id="Слой_1" xmlns="http://www.w3.org/2000/svg" xmlns:xlink="http://www.w3.org/1999/xlink" x="0px" y="0px"
	 viewBox="0 0 117 145" enable-background="new 0 0 117 145" xml:space="preserve">
<g>
	<g>
		<path fill-rule="evenodd" clip-rule="evenodd" fill="#C76452" d="M46.8,91.8c-25.9,11.4-33.6,17.5-36.7,20.2
			c-4.7,4.2-7.3,19.9-10.1,33.2h58.5H117c-2.8-13.3-5.4-29-10.1-33.2c-3.1-2.7-10.5-8.7-36.4-20.1L46.8,91.8z"/>
		<path fill-rule="evenodd" clip-rule="evenodd" fill="#C34A34" d="M28.7,100.3v44.9h-3.8v-42.9C26.1,101.7,27.3,101,28.7,100.3
			L28.7,100.3z M46.8,91.8L46,92.1v53.1h3.8V91.8L46.8,91.8L46.8,91.8z M39.3,95.2c-1.3,0.6-2.6,1.2-3.8,1.8v48.2h3.8V95.2
			L39.3,95.2z M18.2,106.2c-1.5,0.9-2.8,1.8-3.8,2.5v36.5h3.8V106.2L18.2,106.2z M7.6,115.7c-1.5,3-2.7,7.1-3.8,11.8v17.8h3.8V115.7
			L7.6,115.7z M56.6,145.2h1.9h1.9V91.9l-3.8,0V145.2L56.6,145.2z M67.2,145.2H71V92.2l-0.5-0.2l-3.3,0V145.2L67.2,145.2z
			 M77.7,145.2h3.8V97c-1.2-0.6-2.5-1.2-3.8-1.8V145.2L77.7,145.2z M88.3,145.2h3.8v-42.9c-1.2-0.6-2.5-1.3-3.8-2V145.2L88.3,145.2z
			 M98.8,145.2h3.8v-36.5c-1.1-0.7-2.3-1.6-3.8-2.5V145.2L98.8,145.2z M109.4,145.2h3.8v-17.8c-1.1-4.7-2.4-8.8-3.8-11.8V145.2z"/>
		<g>
			<path fill-rule="evenodd" clip-rule="evenodd" fill="#C34A34" d="M7.2,116.5h102.6c0.5,1.1,1,2.4,1.5,3.8H5.8
				C6.2,118.9,6.7,117.6,7.2,116.5z"/>
			<path fill-rule="evenodd" clip-rule="evenodd" fill="#C34A34" d="M3.9,127.1h109.3c0.3,1.2,0.6,2.5,0.9,3.8H3
				C3.3,129.6,3.6,128.3,3.9,127.1z"/>
			<path fill-rule="evenodd" clip-rule="evenodd" fill="#C34A34" d="M1.5,137.7h113.9c0.3,1.3,0.5,2.6,0.8,3.8H0.7
				C1,140.3,1.3,139,1.5,137.7z"/>
		</g>
		<g>
			<path fill-rule="evenodd" clip-rule="evenodd" fill="#9D3421" d="M7.2,116.5h0.4v3.8H5.8l0.2-0.5l0,0l0.1-0.2l0,0l0.1-0.3l0,0
				l0,0l0.1-0.3l0-0.1v0l0.1-0.2l0,0l0.1-0.2l0,0l0-0.1l0-0.1l0,0l0-0.1l0-0.1l0,0l0-0.1l0-0.1l0,0l0,0l0-0.1l0-0.1l0,0l0,0l0-0.1
				l0-0.1l0,0l0,0l0-0.1l0-0.1l0,0l0,0l0-0.1l0-0.1l0,0l0-0.1l0-0.1l0,0l0,0l0-0.1l0-0.1l0,0l0,0l0-0.1l0-0.1l0,0l0,0l0-0.1l0-0.1
				l0,0l0-0.1l0-0.1l0,0l0,0l0-0.1l0-0.1L7.2,116.5L7.2,116.5L7.2,116.5L7.2,116.5z M14.3,116.5h3.8v3.8h-3.8V116.5L14.3,116.5z
				 M24.9,116.5h3.8v3.8h-3.8V116.5L24.9,116.5z M35.5,116.5h3.8v3.8h-3.8V116.5L35.5,116.5z M46,116.5h3.8v3.8H46V116.5L46,116.5z
				 M56.6,116.5h3.8v3.8h-3.8V116.5L56.6,116.5z M67.2,116.5H71v3.8h-3.8V116.5L67.2,116.5z M77.7,116.5h3.8v3.8h-3.8V116.5
				L77.7,116.5z M88.3,116.5h3.8v3.8h-3.8V116.5L88.3,116.5z M98.8,116.5h3.8v3.8h-3.8V116.5L98.8,116.5z M109.4,116.5h0.4l0,0.1
				l0,0l0,0l0,0.1l0,0.1l0,0l0,0l0,0.1l0,0.1l0,0.1l0,0.1l0,0l0,0l0,0.1l0,0.1l0,0l0,0l0,0.1l0,0.1l0,0l0,0l0,0.1l0,0.1l0,0l0,0.1
				l0,0.1l0,0l0,0l0,0.1l0,0.1l0,0l0,0l0,0.1l0,0.1l0,0l0,0l0,0.1l0,0.1l0,0l0,0l0,0.1l0,0.1l0,0l0,0.1l0,0.1l0,0l0,0.1l0,0.1l0,0
				l0,0l0,0.1l0,0l0,0l0,0.1l0,0.1l0,0l0,0.1l0,0l0,0.1l0,0l0,0.1l0,0l0,0l0,0.1l0,0.1l0,0l0.1,0.2l0,0l0.1,0.2l0,0l0,0.1l0,0l0,0.1
				l0,0.1l0,0l0,0l0,0.1h-1.8V116.5z"/>
			<path fill-rule="evenodd" clip-rule="evenodd" fill="#9D3421" d="M3.9,127.1h3.7v3.8H3.8v-3.5v0l0,0l0-0.1l0-0.1l0-0.1l0,0l0,0
				L3.9,127.1L3.9,127.1L3.9,127.1z M14.3,127.1h3.8v3.8h-3.8V127.1L14.3,127.1z M24.9,127.1h3.8v3.8h-3.8V127.1L24.9,127.1z
				 M35.5,127.1h3.8v3.8h-3.8V127.1L35.5,127.1z M46,127.1h3.8v3.8H46V127.1L46,127.1z M56.6,127.1h3.8v3.8h-3.8V127.1L56.6,127.1z
				 M67.2,127.1H71v3.8h-3.8V127.1L67.2,127.1z M77.7,127.1h3.8v3.8h-3.8V127.1L77.7,127.1z M88.3,127.1h3.8v3.8h-3.8V127.1
				L88.3,127.1z M98.8,127.1h3.8v3.8h-3.8V127.1L98.8,127.1z M109.4,127.1h3.7l0,0.1l0,0.1l0,0l0,0l0,0.1l0,0.1l0,0.1l0,0l0,0v3.5
				h-3.8V127.1z"/>
			<path fill-rule="evenodd" clip-rule="evenodd" fill="#9D3421" d="M3.8,137.7h3.8v3.8H3.8V137.7L3.8,137.7z M14.3,137.7h3.8v3.8
				h-3.8V137.7L14.3,137.7z M24.9,137.7h3.8v3.8h-3.8V137.7L24.9,137.7z M35.5,137.7h3.8v3.8h-3.8V137.7L35.5,137.7z M46,137.7h3.8
				v3.8H46V137.7L46,137.7z M56.6,137.7h3.8v3.8h-3.8V137.7L56.6,137.7z M67.2,137.7H71v3.8h-3.8V137.7L67.2,137.7z M77.7,137.7h3.8
				v3.8h-3.8V137.7L77.7,137.7z M88.3,137.7h3.8v3.8h-3.8V137.7L88.3,137.7z M98.8,137.7h3.8v3.8h-3.8V137.7L98.8,137.7z
				 M109.4,137.7h3.8v3.8h-3.8V137.7z"/>
		</g>
		<g>
			<path fill-rule="evenodd" clip-rule="evenodd" fill="#9D3421" d="M23.8,145.2h2c-0.1-9-0.1-15.4-0.1-15.4S24.9,136.5,23.8,145.2z
				"/>
			<path fill-rule="evenodd" clip-rule="evenodd" fill="#9D3421" d="M93.2,145.2h-2c0.1-9,0.1-15.4,0.1-15.4S92.1,136.5,93.2,145.2z
				"/>
		</g>
		<path fill-rule="evenodd" clip-rule="evenodd" fill="#FFDECC" d="M71.1,69v28.9c-6.9,8.5-18.2,8.2-25.1,0V69
			C45.9,53.5,71.1,53.5,71.1,69z"/>
		<path fill-rule="evenodd" clip-rule="evenodd" fill="#F7C5AA" d="M71.1,71.9v19.3c-4.8,3.5-9.3,5.4-12.6,5.4
			c-3.2,0-7.8-2-12.6-5.4V71.9C45.9,56.3,71.1,56.3,71.1,71.9z"/>
		<path fill-rule="evenodd" clip-rule="evenodd" fill="#B6DBFC" d="M85.9,15.7l3.2,23.6c1.1,8.5-8.6,14.3-13.4,14.3H41
			c-4.8,0-14.5-5.8-13.4-14.3l3.2-23.6C33.7-5.5,83-5.5,85.9,15.7z"/>
		<path fill-rule="evenodd" clip-rule="evenodd" fill="#86BCEB" d="M58.4,56.6c25.1,0,45.6-9.2,45.6-20.5
			c0-11.3-20.5-20.5-45.6-20.5c-25.1,0-45.6,9.2-45.6,20.5C12.8,47.4,33.3,56.6,58.4,56.6z"/>
		<path fill-rule="evenodd" clip-rule="evenodd" fill="#86BCEB" d="M38.2,22.6C44,12.3,50-0.1,58.7,0.2C67.1-0.1,73,11.4,78.5,21.4
			c-5.4-1-11.3-1.5-17.5-1.5C52.8,19.9,45,20.9,38.2,22.6z"/>
		<path fill-rule="evenodd" clip-rule="evenodd" fill="#FFDECC" d="M58.5,21.6c-42.1,0-27,46.9-24.2,50.9c3,4.5,17.4,16.4,24.2,16.4
			c6.8,0,21.2-11.9,24.2-16.4C85.5,68.5,100.6,21.6,58.5,21.6z"/>
		<path fill-rule="evenodd" clip-rule="evenodd" fill="#F7C5AA" d="M45,68.1c9.2,3.6,19.6,3.2,27,0C69.1,75.8,49.2,75.8,45,68.1z"/>
		<path fill-rule="evenodd" clip-rule="evenodd" fill="#F7C5AA" d="M47.7,66.6C46,68,45,70.1,44.8,71.9C43.6,69.9,45.8,66,47.7,66.6
			z"/>
		<path fill-rule="evenodd" clip-rule="evenodd" fill="#F7C5AA" d="M69.1,66.6c1.7,1.4,2.8,3.5,2.9,5.3C73.2,69.9,71,66,69.1,66.6z"
			/>
		<path fill-rule="evenodd" clip-rule="evenodd" fill="#802D04" d="M85.2,42.7c-0.1-5.1-5.5-14.7-9-16.2c-3.5-1.6-21.4,0.4-30.6,5.6
			c-10,5.6-14.1,11.8-13.9,16.8c0.1,3.5-1.3,1.4-2.3,1.1c-0.2-5.3,0.1-16,1.5-20.8c1.5-5.1,14.6-8.2,28.7-8
			c14.1,0.2,19.5,2.2,24.4,5.2c3.5,2.1,5.3,23.9,2.2,22.8C85,48.8,85.3,45.7,85.2,42.7z"/>
		<path fill-rule="evenodd" clip-rule="evenodd" fill="#FFDECC" d="M26.4,48.1c2.2-0.7,5,1.8,6.3,5.6c1.3,3.8,0.5,7.6-1.7,8.3
			c-2.2,0.7-5-1.8-6.3-5.6C23.4,52.5,24.2,48.8,26.4,48.1z"/>
		<path fill-rule="evenodd" clip-rule="evenodd" fill="#FFDECC" d="M91.1,48.1c-2.2-0.7-5,1.8-6.3,5.6c-1.3,3.8-0.5,7.6,1.7,8.3
			c2.2,0.7,5-1.8,6.3-5.6C94,52.5,93.3,48.8,91.1,48.1z"/>
		<path fill-rule="evenodd" clip-rule="evenodd" fill="#86BCEB" d="M32.4,98c-12.1,0-14.7,1.3-15.2,8.5c-0.5,7.2,1.5,24.2,9.1,33.7
			c7.6,9.4,3.5-1.3,4.6-9c1-7.6,2.5,10.8,6.1,2.2C40.5,125,35.9,119.1,32.4,98z"/>
		<path fill-rule="evenodd" clip-rule="evenodd" fill="#86BCEB" d="M92.8,101.3c5.5,0,12.4,2.8,7.5,9c-4.9,6.1-7.5,20.2-7.8,26.1
			c-0.3,5.9-3.9,10-3.9,5.1c0-4.9-4.6-16.1-5.9-11.3c-1.3,4.9-6.2,9.7-5.5,0.5C77.8,121.5,80.4,96.2,92.8,101.3z"/>
		<path fill-rule="evenodd" clip-rule="evenodd" fill="#86BCEB" d="M92,103.4c-10.5,11.5-42.6,26.9-63.6-0.5
			c-2.3-7.1-1.7-10.9,4.5-9.1c-0.4-6.6,5.5-9.1,11.2-6c8.3,8.8,26.9,4.3,30.4-1.5c5.4-1.5,8.8,0.7,8.8,8.2
			C94.1,89.2,96.4,97.6,92,103.4z"/>
		<g>
			<path fill-rule="evenodd" clip-rule="evenodd" fill="#345E82" d="M88.2,114.4v-3.8c1.9-2.5,4-4.3,5.6-4.8
				C92.6,106.8,90.3,110.2,88.2,114.4L88.2,114.4z M88.2,109c2.1-1.6,3.9-3.9,4.6-6.8l0,0c-0.9,1.7-2.7,3.3-4.6,4.8V109z M88.2,107
				v2c-2.1,1.6-4.4,2.4-6.1,2.4V111C83.7,110.1,86.1,108.7,88.2,107L88.2,107z M88.2,110.6c-3,4.1-5.4,10.1-4.4,15.9
				c0.8-4.1,2.6-8.5,4.4-12.1V110.6L88.2,110.6z M82.1,95.4v-0.1c0.2-0.2,0.4-0.3,0.6-0.5l0,0C82.5,95,82.3,95.2,82.1,95.4z
				 M29.9,127.8c-0.4-0.7-0.8-1.4-1.1-2.3v1.2C29.2,127.1,29.5,127.5,29.9,127.8L29.9,127.8z M82.1,95.2v0.1
				c-8.9,8.9-29.1,17.9-46.9,0C53.3,110.1,73.5,101.9,82.1,95.2L82.1,95.2z M82.1,111l-0.6,0.3c0.2,0,0.4,0,0.6,0.1V111L82.1,111z
				 M28.8,106v-2.4c1.6,2.2,3.9,4.4,5.4,5.6C32.3,109,30.1,107.9,28.8,106z M28.8,125.6c-3.3-7.7-4.8-20.5-3.6-22.5
				c-3.4,2.6-2.6,16.7,3.6,23.6V125.6L28.8,125.6z M28.8,103.6v2.4c-0.8-1.1-1.2-2.5-1.1-4.1C28,102.4,28.4,103,28.8,103.6z"/>
		</g>
	</g>
</g>
</svg>
