<?xml version="1.0" encoding="utf-8"?>
<!-- Generator: Adobe Illustrator 18.1.1, SVG Export Plug-In . SVG Version: 6.00 Build 0)  -->
<svg version="1.1" id="Слой_1" xmlns="http://www.w3.org/2000/svg" xmlns:xlink="http://www.w3.org/1999/xlink" x="0px" y="0px"
	 viewBox="0 0 117 145" enable-background="new 0 0 117 145" xml:space="preserve">
<g>
	<g>
		<g>
			<path fill-rule="evenodd" clip-rule="evenodd" fill="#A2400F" d="M87.1,48c-19.7-17.4-37.7-12.1-44-5.4
				C46.6,46.5,69.3,60.3,87.1,48z"/>
			<path fill-rule="evenodd" clip-rule="evenodd" fill="#A2400F" d="M94.5,66.9c-9.7-26.5-44.1-29.7-51.4-24.3
				C45.8,47.1,74.8,75.9,94.5,66.9z"/>
			<path fill-rule="evenodd" clip-rule="evenodd" fill="#A2400F" d="M92.5,79.7c-3.6-26.2-41.3-41.4-49.4-37.1
				C45.1,47.4,71.7,85.6,92.5,79.7z"/>
			<path fill-rule="evenodd" clip-rule="evenodd" fill="#A2400F" d="M24.9,54.1c7.8,0.4,20.5-4.2,18.2-11.4
				C36.3,42.8,30.5,45.3,24.9,54.1z"/>
			<path fill-rule="evenodd" clip-rule="evenodd" fill="#A2400F" d="M22,69.8c10.5-3.2,20.9-18,21.1-27.1C38.4,44.9,25,51.9,22,69.8
				z"/>
			<path fill-rule="evenodd" clip-rule="evenodd" fill="#A2400F" d="M23.7,80.9c15.2-4.4,20.9-29.2,19.4-38.3
				C38.9,45.7,23.3,62.7,23.7,80.9z"/>
			<path fill-rule="evenodd" clip-rule="evenodd" fill="#A2400F" d="M86.6,95C94,65,51.7,39.6,43.1,42.6
				C44.4,47.7,65.2,97.8,86.6,95z"/>
			<path fill-rule="evenodd" clip-rule="evenodd" fill="#A2400F" d="M31,96.5c19.1-16.3,19.2-48.1,12.1-53.9
				C39.5,46.4,17.5,79.6,31,96.5z"/>
			<path fill-rule="evenodd" clip-rule="evenodd" fill="#A2400F" d="M40.8,107.7c16.2-19.3,10.3-60.4,2.3-65
				C40.2,47,24.7,93.2,40.8,107.7z"/>
			<path fill-rule="evenodd" clip-rule="evenodd" fill="#A2400F" d="M79.3,106.8c3-25.8-27.2-65.5-36.3-64.1
				C43.5,47.9,57.8,105.5,79.3,106.8z"/>
			<path fill-rule="evenodd" clip-rule="evenodd" fill="#A2400F" d="M50.4,107.3c13.1-21.5,1.2-61.3-7.4-64.6
				C40.9,47.4,32.4,95.4,50.4,107.3z"/>
			<path fill-rule="evenodd" clip-rule="evenodd" fill="#A2400F" d="M70,111.3c6.6-25.1-17.8-68.7-26.9-68.6
				C42.7,47.9,48.9,106.9,70,111.3z"/>
		</g>
		<path fill-rule="evenodd" clip-rule="evenodd" fill="#FFDECC" d="M68.1,104.4c-0.2,0.3-19.7,0.6-19.9,0.9
			c-6.1,8.8-19.3,12.6-29.8,15C7.9,122.7,7.5,136.1,7.5,145h101.9c0-8.9-0.2-22.2-10.9-24.6C87.9,118,73.9,113.6,68.1,104.4z"/>
		<path fill-rule="evenodd" clip-rule="evenodd" fill="#FFDECC" d="M68.7,85.7v25.2c-5.6,7.4-14.8,7.2-20.4,0V85.7
			C48.3,72.1,68.7,72.1,68.7,85.7z"/>
		<path fill-rule="evenodd" clip-rule="evenodd" fill="#F7C5AA" d="M68.7,85.7v16.9c-3.9,3-7.6,4.7-10.2,4.7
			c-2.6,0-6.3-1.7-10.2-4.7V85.7C48.3,72.1,68.7,72.1,68.7,85.7z"/>
		<path fill-rule="evenodd" clip-rule="evenodd" fill="#FFDECC" d="M58.5,103.1c-6.6,0-20.7-10.5-25-25.6
			c-4.4-15.2,3.9-37.1,25-37.1c21.2,0,29.4,21.8,25,37.1C79.2,92.6,65.2,103.1,58.5,103.1z"/>
		<path fill-rule="evenodd" clip-rule="evenodd" fill="#FF386A" d="M47.9,87.7c4.5-3.3,9.2-1.3,10.7-1.3c1.6,0,6-2,10.5,1.3
			C66.9,96.7,51.3,97,47.9,87.7z"/>
		<path fill-rule="evenodd" clip-rule="evenodd" fill="#A31F40" d="M48,87.6c4.2-1.5,7.8,1.4,10.5,1.4c2.6,0,6.3-3.9,10.5-1.3
			C64.1,92.8,52.9,92.5,48,87.6z"/>
		<path fill-rule="evenodd" clip-rule="evenodd" fill="#FFFFFF" d="M47.9,87.6c4.5-1.9,7.8-0.5,10.4-0.5c2.6,0,6.3-1.3,10.8,0.5
			C64.2,90.4,52.8,90.3,47.9,87.6z"/>
		<path fill-rule="evenodd" clip-rule="evenodd" fill="#FF386A" d="M47.9,87.6c4.5-3.3,8.3-1,10.9-1c2.6,0,5.8-2.3,10.2,1
			c0,0,0,0.1-0.1,0.1C63.3,87.7,54,87.6,47.9,87.6z"/>
		<path fill-rule="evenodd" clip-rule="evenodd" fill="#FFDECC" d="M28.8,73.9c2.1-0.9,5.2,1.3,6.8,5.1c1.6,3.7,1.1,7.5-1,8.4
			c-2.1,0.9-5.2-1.3-6.8-5.1C26.2,78.6,26.6,74.8,28.8,73.9z"/>
		<path fill-rule="evenodd" clip-rule="evenodd" fill="#FFDECC" d="M87.8,73.9C85.6,73,82.6,75.3,81,79c-1.6,3.7-1.1,7.5,1,8.4
			c2.1,0.9,5.2-1.3,6.8-5.1C90.4,78.6,89.9,74.8,87.8,73.9z"/>
		<path fill-rule="evenodd" clip-rule="evenodd" fill="#A2400F" d="M32.8,76.6C27,50,45.6,38.3,58.8,38.3
			c14.9,0,28.9,16.4,26.4,36.8c-7.7-3.7-12.8-8.5-19.9-17c0.6,2.6,6.3,11.9,11.8,15c-9,1.5-25.8-9.8-34.7-21.6
			C40.2,60,36.7,71.2,32.8,76.6z"/>
		<path fill-rule="evenodd" clip-rule="evenodd" fill="#4D1B02" d="M108.8,133.9c-0.8-5.1-2.7-9.8-6.9-12.3c-29,9.6-57.9,9-86.9,0
			c-4.2,2.4-6,7.2-6.9,12.3c8,0.2,14.7,4.7,17.8,11.1H91C94,138.6,100.9,134.1,108.8,133.9z"/>
	</g>
</g>
</svg>
