<?xml version="1.0" encoding="utf-8"?>
<!-- Generator: Adobe Illustrator 18.1.1, SVG Export Plug-In . SVG Version: 6.00 Build 0)  -->
<svg version="1.1" id="Слой_1" xmlns="http://www.w3.org/2000/svg" xmlns:xlink="http://www.w3.org/1999/xlink" x="0px" y="0px"
	 viewBox="0 0 117 145" enable-background="new 0 0 117 145" xml:space="preserve">
<g>
	<g>
		<path fill-rule="evenodd" clip-rule="evenodd" fill="#FFDECC" d="M46.8,91.6c-25.9,11.4-33.6,17.5-36.7,20.2
			C5.4,116,2.8,131.7,0,145h58.5H117c-2.8-13.3-5.4-29-10.1-33.2c-3.1-2.7-10.5-8.7-36.4-20.1L46.8,91.6z"/>
		<path fill-rule="evenodd" clip-rule="evenodd" fill="#FFDECC" d="M71.1,68.8v28.9c-6.9,8.5-18.2,8.2-25.1,0V68.8
			C45.9,53.2,71.1,53.2,71.1,68.8z"/>
		<path fill-rule="evenodd" clip-rule="evenodd" fill="#F7C5AA" d="M71.1,68.8v19.3c-4.8,3.5-9.3,5.4-12.6,5.4
			c-3.2,0-7.8-2-12.6-5.4V68.8C45.9,53.2,71.1,53.2,71.1,68.8z"/>
		<path fill-rule="evenodd" clip-rule="evenodd" fill="#FFDECC" d="M58.5,17c-42.1,0-27,51.3-24.2,55.3c3,4.5,17.4,16.4,24.2,16.4
			c6.8,0,21.2-11.9,24.2-16.4C85.5,68.3,100.6,17,58.5,17z"/>
		<path fill-rule="evenodd" clip-rule="evenodd" fill="#F7C5AA" d="M69.7,73.2c-9.9,0.5-19.6-3.2-25.6-8.6
			C44.5,72.8,63.3,79.2,69.7,73.2z"/>
		<path fill-rule="evenodd" clip-rule="evenodd" fill="#F7C5AA" d="M46.7,63.8c-2.1,0.8-3.7,2.4-4.5,4.1
			C41.8,65.7,45,62.6,46.7,63.8z"/>
		<path fill-rule="evenodd" clip-rule="evenodd" fill="#FFDECC" d="M26.4,47.4c2.2-0.7,5,1.8,6.3,5.6c1.3,3.9,0.5,7.6-1.7,8.3
			c-2.2,0.7-5-1.8-6.3-5.6C23.4,51.9,24.2,48.1,26.4,47.4z"/>
		<path fill-rule="evenodd" clip-rule="evenodd" fill="#FFDECC" d="M91.1,47.4c-2.2-0.7-5,1.8-6.3,5.6c-1.3,3.9-0.5,7.6,1.7,8.3
			c2.2,0.7,5-1.8,6.3-5.6C94,51.9,93.3,48.1,91.1,47.4z"/>
		<path fill-rule="evenodd" clip-rule="evenodd" fill="#FFC65D" d="M49.3,30.5c-12.6-0.2-16.1,13-18.6,27.5
			c-6.6-40.2,7.5-48.2,27-48.1c20.3,0.1,36,4.7,29.3,45.9c-2.6-11.7-8.6-27.5-18.7-25.3C61.5,32.1,56.2,30.6,49.3,30.5z"/>
		<path fill-rule="evenodd" clip-rule="evenodd" fill="#FF386A" d="M106.9,111.8c-2.6-2.3-8.2-6.8-24.9-14.8
			c-0.1,0.1-0.2,0.2-0.4,0.4c-15.7,17.1-38,8.7-44-0.6c-0.2-0.3-0.4-0.5-0.6-0.8c-18.2,8.6-24.3,13.4-26.9,15.8
			c-1.1,1-2.1,2.6-3,4.6c16,3,16.1,11.9,16.6,28.6h34.8h34.8c0.5-16.7,0.6-25.6,16.6-28.6C108.9,114.3,108,112.8,106.9,111.8z"/>
		<g>
			<rect x="30.4" y="132.4" fill-rule="evenodd" clip-rule="evenodd" fill="#FFFFFF" width="7.9" height="7.9"/>
			<rect x="42.5" y="132.4" fill-rule="evenodd" clip-rule="evenodd" fill="#FFFFFF" width="7.9" height="7.9"/>
			<rect x="54.6" y="132.4" fill-rule="evenodd" clip-rule="evenodd" fill="#FFFFFF" width="7.9" height="7.9"/>
			<rect x="66.6" y="132.4" fill-rule="evenodd" clip-rule="evenodd" fill="#FFFFFF" width="7.9" height="7.9"/>
			<rect x="78.7" y="132.4" fill-rule="evenodd" clip-rule="evenodd" fill="#FFFFFF" width="7.9" height="7.9"/>
		</g>
	</g>
</g>
</svg>
