<?xml version="1.0" encoding="utf-8"?>
<!-- Generator: Adobe Illustrator 18.1.1, SVG Export Plug-In . SVG Version: 6.00 Build 0)  -->
<svg version="1.1" id="Слой_1" xmlns="http://www.w3.org/2000/svg" xmlns:xlink="http://www.w3.org/1999/xlink" x="0px" y="0px"
	 viewBox="0 0 117 145" enable-background="new 0 0 117 145" xml:space="preserve">
<g>
	<g>
		<path fill-rule="evenodd" clip-rule="evenodd" fill="#FF690F" d="M69.7,45.7c5.2,4.7,8,9.3,6.9,15.1c-1.1,5.8,0.1,10,6.7,12.9
			c6.6,2.8,4.4,3.8,3.8,10.4c-0.4,4.1,3.4,7.4,7.9,6.8c0.8-0.1-4.9-1.5-4.6-5.6c0.4-6.7,5.9-11.1-0.6-16.7
			c-6.5-5.6-7.1-7.4-5.8-11.5c1.2-4.1-2-10.2-8.6-15.7C67.4,34.5,64.4,41,69.7,45.7z"/>
		<path fill-rule="evenodd" clip-rule="evenodd" fill="#FF690F" d="M43.6,70.7c-4.8,5.1-7.3,9.5-5.8,15.2c1.5,5.7,0.6,10-5.7,13.3
			c-6.3,3.3-4.1,4.1-3,10.7c0.7,4.1-2.8,7.6-7.3,7.4c-0.9,0,4.7-1.8,4.2-6c-0.9-6.7-6.7-10.6-0.7-16.7c6-6,4.1-7,2.5-11
			c-1.5-4,3.5-11.3,9.8-17.3C75.5,29.8,48.4,65.6,43.6,70.7z"/>
		<path fill-rule="evenodd" clip-rule="evenodd" fill="#FF690F" d="M46.7,45.7c-5.2,4.7-8,9.3-6.9,15.1c1.1,5.8-0.1,10-6.7,12.9
			c-6.6,2.8-4.4,3.8-3.8,10.4c0.4,4.1-3.4,7.4-7.9,6.8c-0.8-0.1,4.9-1.5,4.6-5.6c-0.4-6.7-5.9-11.1,0.6-16.7
			c6.5-5.6,7.1-7.4,5.8-11.5c-1.2-4.1,2-10.2,8.6-15.7C48.9,34.5,51.9,41,46.7,45.7z"/>
		<path fill-rule="evenodd" clip-rule="evenodd" fill="#FF690F" d="M74.3,69.5c4.6,5.3,6.9,9.8,5.1,15.5c-1.8,5.6-1.1,10,5.1,13.6
			c6.2,3.6,4,4.3,2.5,10.8c-0.9,4,2.5,7.7,7,7.7c0.9,0-4.7-2-3.9-6.2c1.2-6.6,7.2-10.3,1.4-16.6c-5.8-6.3-3.8-7.2-2.1-11.1
			c1.7-4-3.1-11.4-9-17.7C44.1,27.3,69.7,64.2,74.3,69.5z"/>
		<path fill-rule="evenodd" clip-rule="evenodd" fill="#FF690F" d="M46.6,37.5c4-3.7,25.2-6.6,33.7,7.4c8.5,14,4,10.5,8.8,19.4
			c4.8,8.8,4.8,10,0.3,16.2C84.8,86.8,80,91.7,84,96c4,4.3,5.7,6.6,1.7,12.5c-4,6,9.6,12.8,4.2,20.2c-5.4,7.4-53.5,9.7-56.6,1.1
			c-3.1-8.6,2-14.5-1.1-18.8c-3.1-4.3-7.9-8.6,0-14.5c4.6-3.5-2-6.8-5.3-12.8c-3.6-6.8-1.3-15.4,0.4-18
			C31.6,59.5,30.7,35.8,46.6,37.5z"/>
		<path fill-rule="evenodd" clip-rule="evenodd" fill="#FFD16E" d="M68.1,104.4c-0.2,0.3-19.7,0.6-19.9,0.9
			c-6.1,8.8-19.3,12.6-29.8,15C7.9,122.7,7.5,136.1,7.5,145h101.9c0-8.9-0.2-22.2-10.9-24.6C87.9,118,73.9,113.6,68.1,104.4z"/>
		<g>
			<g>
				<ellipse fill-rule="evenodd" clip-rule="evenodd" fill="#FFFFFF" cx="14.3" cy="141.2" rx="1.9" ry="1.9"/>
				<ellipse fill-rule="evenodd" clip-rule="evenodd" fill="#FFFFFF" cx="26" cy="141.2" rx="1.9" ry="1.9"/>
				<ellipse fill-rule="evenodd" clip-rule="evenodd" fill="#FFFFFF" cx="37.8" cy="141.2" rx="1.9" ry="1.9"/>
				<ellipse fill-rule="evenodd" clip-rule="evenodd" fill="#FFFFFF" cx="49.5" cy="141.2" rx="1.9" ry="1.9"/>
				<ellipse fill-rule="evenodd" clip-rule="evenodd" fill="#FFFFFF" cx="61.3" cy="141.2" rx="1.9" ry="1.9"/>
				<ellipse fill-rule="evenodd" clip-rule="evenodd" fill="#FFFFFF" cx="73" cy="141.2" rx="1.9" ry="1.9"/>
				<ellipse fill-rule="evenodd" clip-rule="evenodd" fill="#FFFFFF" cx="84.8" cy="141.2" rx="1.9" ry="1.9"/>
				<ellipse fill-rule="evenodd" clip-rule="evenodd" fill="#FFFFFF" cx="96.6" cy="141.2" rx="1.9" ry="1.9"/>
				<path fill-rule="evenodd" clip-rule="evenodd" fill="#FFFFFF" d="M108.3,139.3c0.4,0,0.8,0.1,1.1,0.3c0,1.1,0.1,2.1,0.1,3.2
					c-0.3,0.2-0.7,0.4-1.2,0.4c-1.1,0-1.9-0.9-1.9-1.9C106.4,140.2,107.2,139.3,108.3,139.3z"/>
			</g>
			<g>
				<path fill-rule="evenodd" clip-rule="evenodd" fill="#FFFFFF" d="M8.7,131.9c1.1,0,1.9,0.9,1.9,1.9c0,1.1-0.9,1.9-1.9,1.9
					c-0.3,0-0.5-0.1-0.7-0.1C8.1,134.4,8.3,133.1,8.7,131.9L8.7,131.9z"/>
				<ellipse fill-rule="evenodd" clip-rule="evenodd" fill="#FFFFFF" cx="20.4" cy="133.9" rx="1.9" ry="1.9"/>
				<ellipse fill-rule="evenodd" clip-rule="evenodd" fill="#FFFFFF" cx="32.2" cy="133.9" rx="1.9" ry="1.9"/>
				<ellipse fill-rule="evenodd" clip-rule="evenodd" fill="#FFFFFF" cx="44" cy="133.9" rx="1.9" ry="1.9"/>
				<ellipse fill-rule="evenodd" clip-rule="evenodd" fill="#FFFFFF" cx="55.7" cy="133.9" rx="1.9" ry="1.9"/>
				<ellipse fill-rule="evenodd" clip-rule="evenodd" fill="#FFFFFF" cx="67.5" cy="133.9" rx="1.9" ry="1.9"/>
				<ellipse fill-rule="evenodd" clip-rule="evenodd" fill="#FFFFFF" cx="79.2" cy="133.9" rx="1.9" ry="1.9"/>
				<ellipse fill-rule="evenodd" clip-rule="evenodd" fill="#FFFFFF" cx="91" cy="133.9" rx="1.9" ry="1.9"/>
				<ellipse fill-rule="evenodd" clip-rule="evenodd" fill="#FFFFFF" cx="102.7" cy="133.9" rx="1.9" ry="1.9"/>
			</g>
			<g>
				<ellipse fill-rule="evenodd" clip-rule="evenodd" fill="#FFFFFF" cx="14.3" cy="126.3" rx="1.9" ry="1.9"/>
				<ellipse fill-rule="evenodd" clip-rule="evenodd" fill="#FFFFFF" cx="26" cy="126.3" rx="1.9" ry="1.9"/>
				<ellipse fill-rule="evenodd" clip-rule="evenodd" fill="#FFFFFF" cx="37.8" cy="126.3" rx="1.9" ry="1.9"/>
				<ellipse fill-rule="evenodd" clip-rule="evenodd" fill="#FFFFFF" cx="49.5" cy="126.3" rx="1.9" ry="1.9"/>
				<ellipse fill-rule="evenodd" clip-rule="evenodd" fill="#FFFFFF" cx="61.3" cy="126.3" rx="1.9" ry="1.9"/>
				<ellipse fill-rule="evenodd" clip-rule="evenodd" fill="#FFFFFF" cx="73" cy="126.3" rx="1.9" ry="1.9"/>
				<ellipse fill-rule="evenodd" clip-rule="evenodd" fill="#FFFFFF" cx="84.8" cy="126.3" rx="1.9" ry="1.9"/>
				<ellipse fill-rule="evenodd" clip-rule="evenodd" fill="#FFFFFF" cx="96.6" cy="126.3" rx="1.9" ry="1.9"/>
				<path fill-rule="evenodd" clip-rule="evenodd" fill="#FFFFFF" d="M107.2,127.9c-0.5-0.4-0.8-0.9-0.8-1.6l0-0.1
					C106.7,126.8,106.9,127.3,107.2,127.9z"/>
			</g>
			<g>
				<path fill-rule="evenodd" clip-rule="evenodd" fill="#FFFFFF" d="M22.3,119.4c-0.2,0.8-1,1.4-1.9,1.4c-0.6,0-1.1-0.2-1.4-0.6
					C20.1,120,21.2,119.7,22.3,119.4z"/>
				<ellipse fill-rule="evenodd" clip-rule="evenodd" fill="#FFFFFF" cx="32.2" cy="118.9" rx="1.9" ry="1.9"/>
				<ellipse fill-rule="evenodd" clip-rule="evenodd" fill="#FFFFFF" cx="44" cy="118.9" rx="1.9" ry="1.9"/>
				<ellipse fill-rule="evenodd" clip-rule="evenodd" fill="#FFFFFF" cx="55.7" cy="118.9" rx="1.9" ry="1.9"/>
				<ellipse fill-rule="evenodd" clip-rule="evenodd" fill="#FFFFFF" cx="67.5" cy="118.9" rx="1.9" ry="1.9"/>
				<ellipse fill-rule="evenodd" clip-rule="evenodd" fill="#FFFFFF" cx="79.2" cy="118.9" rx="1.9" ry="1.9"/>
				<path fill-rule="evenodd" clip-rule="evenodd" fill="#FFFFFF" d="M92.9,119c0,1.1-0.9,1.9-1.9,1.9c-1.1,0-1.9-0.9-1.9-1.9
					c0-0.4,0.1-0.7,0.3-1C90.5,118.3,91.7,118.6,92.9,119z"/>
			</g>
		</g>
		<path fill-rule="evenodd" clip-rule="evenodd" fill="#FFDECC" d="M68.7,85.7v25.2c-5.6,7.4-14.8,7.2-20.4,0V85.7
			C48.3,72.1,68.7,72.1,68.7,85.7z"/>
		<path fill-rule="evenodd" clip-rule="evenodd" fill="#F7C5AA" d="M68.7,85.7v16.9c-3.9,3-7.6,4.7-10.2,4.7
			c-2.6,0-6.3-1.7-10.2-4.7V85.7C48.3,72.1,68.7,72.1,68.7,85.7z"/>
		<path fill-rule="evenodd" clip-rule="evenodd" fill="#FFDECC" d="M58.5,103.1c-6.7,0-20.7-10.5-25-25.6
			c-4.4-15.2,3.9-37.1,25-37.1c21.2,0,29.4,21.8,25,37.1C79.2,92.6,65.2,103.1,58.5,103.1z"/>
		<path fill-rule="evenodd" clip-rule="evenodd" fill="#FF386A" d="M50.5,87.9c3.4-3.3,6-0.8,8-0.8c2,0,4.6-2.5,8,0.8
			C64.7,96.6,52.9,96.9,50.5,87.9z"/>
		<path fill-rule="evenodd" clip-rule="evenodd" fill="#C9204A" d="M50.5,87.9c3.4-3.3,6-0.8,8-0.8c2,0,4.6-2.5,8,0.8
			C61.3,90.5,54,89.3,50.5,87.9z"/>
		<path fill-rule="evenodd" clip-rule="evenodd" fill="#FFDECC" d="M29.3,70.6c2.1-0.9,5.2,1.3,6.7,5.1c1.6,3.7,1.1,7.5-1,8.4
			c-2.1,0.9-5.2-1.3-6.8-5.1C26.7,75.3,27.1,71.6,29.3,70.6z"/>
		<path fill-rule="evenodd" clip-rule="evenodd" fill="#FFDECC" d="M88.3,70.6c-2.1-0.9-5.2,1.3-6.8,5.1c-1.6,3.7-1.1,7.5,1,8.4
			c2.1,0.9,5.2-1.3,6.7-5.1C90.9,75.3,90.4,71.6,88.3,70.6z"/>
		<path fill-rule="evenodd" clip-rule="evenodd" fill="#FF690F" d="M47.6,47.2c1.6,8,10,12.2,17.9,13.4c7.9,1.2,14.9,1.2,10.5,6.6
			c-4.4,5.4-1.9,10.3,2.3,13.4c4.2,3,2.8,11.3-0.9,16.4c-3.7,5.2-4.7,9.6-0.2,14.5c4.4,4.9,2.1,5.1-1.6,11.2
			c-2.3,3.8-0.5,8.2,3.6,9.2c0.8,0.2-3.6-3.1-1.4-7c3.5-6.3,8.5-8.5,5.4-16c-3-7.5-1.2-7.7,1.9-11.3c3-3.5,4.2-12.4,0.5-19.7
			c-3.7-7.3,2.6-4.9,1.9-13.8C86.7,55.2,65,22.4,47.6,47.2z"/>
		<path fill-rule="evenodd" clip-rule="evenodd" fill="#FF690F" d="M61.5,40.5c-5.5,3.2-24.3,21.6-26.4,28.1s0.1,11.7,1.4,16.5
			C31.9,83.9,20.5,32.1,61.5,40.5z"/>
		<g>
			<polygon fill-rule="evenodd" clip-rule="evenodd" fill="#B34D1F" points="46.8,106.3 41.2,110.8 50.5,125.3 58.5,117.7 			"/>
			<polygon fill-rule="evenodd" clip-rule="evenodd" fill="#B34D1F" points="70.5,106.2 76.2,111.1 66.5,125.3 58.5,117.7 			"/>
		</g>
		<g>
			<path fill-rule="evenodd" clip-rule="evenodd" fill="#B5903F" d="M25.8,145c0.1-2,0.2-4.4,0.7-7.4c-0.9,2.9-1.5,5.3-2,7.4H25.8z"
				/>
			<path fill-rule="evenodd" clip-rule="evenodd" fill="#B5903F" d="M91.2,145c-0.1-2-0.2-4.4-0.7-7.4c0.9,2.9,1.5,5.3,2,7.4H91.2z"
				/>
		</g>
	</g>
</g>
</svg>
