<?xml version="1.0" encoding="utf-8"?>
<!-- Generator: Adobe Illustrator 18.1.1, SVG Export Plug-In . SVG Version: 6.00 Build 0)  -->
<svg version="1.1" id="Слой_1" xmlns="http://www.w3.org/2000/svg" xmlns:xlink="http://www.w3.org/1999/xlink" x="0px" y="0px"
	 viewBox="0 0 117 145" enable-background="new 0 0 117 145" xml:space="preserve">
<g>
	<g>
		<path fill-rule="evenodd" clip-rule="evenodd" fill="#4D1B02" d="M48.3,39.8c2.7-4.4,24.4-8.3,33.2,7.4s4.4,21.1,9.3,26.6
			c4.9,5.5,0.3,18.2-3.1,19.3c-3.4,1.1-2,5.5-0.4,7.4c7,8-3.1,21.6-30.4,21.4c-29.1-0.1-34.8-15.9-27.3-20.8
			c2.4-1.6,3.4-4.7,0.7-7.4c-2.7-2.7-8.8-12.8-3-21.1C33.1,64.4,28.1,39.8,48.3,39.8z"/>
		<path fill-rule="evenodd" clip-rule="evenodd" fill="#FFA8BE" d="M68.1,104.2c-0.2,0.3-19.7,0.6-19.9,0.9
			c-6.1,8.8-19.3,12.6-29.8,15c-10.5,2.4-10.9,15.7-10.9,24.6h101.9c0-8.9-0.2-22.2-10.9-24.6C87.9,117.7,73.9,113.4,68.1,104.2z"/>
		<path fill-rule="evenodd" clip-rule="evenodd" fill="#FFDECC" d="M68.7,85.4v25.2c-6.1,10.8-15.3,10.5-20.4,0V85.4
			C48.3,71.8,68.7,71.8,68.7,85.4z"/>
		<path fill-rule="evenodd" clip-rule="evenodd" fill="#F7C5AA" d="M68.7,85.4v16.9c-3.9,3-7.6,4.7-10.2,4.7s-6.3-1.7-10.2-4.7V85.4
			C48.3,71.8,68.7,71.8,68.7,85.4z"/>
		<path fill-rule="evenodd" clip-rule="evenodd" fill="#FFDECC" d="M58.5,102.9c-6.7,0-20.7-10.5-25-25.6
			c-4.4-15.2,3.9-37.1,25-37.1c21.2,0,29.4,21.8,25,37.1C79.2,92.3,65.2,102.9,58.5,102.9z"/>
		<path fill-rule="evenodd" clip-rule="evenodd" fill="#FF386A" d="M50.5,87.7c3.4-3.3,6-0.8,8-0.8c2,0,4.6-2.5,8,0.8
			C64.7,96.4,52.9,96.7,50.5,87.7z"/>
		<path fill-rule="evenodd" clip-rule="evenodd" fill="#FFFFFF" d="M51.5,88.1c1.9-0.5,11.3-0.6,13.9-0.1
			C63.3,92.1,53.4,91.9,51.5,88.1z"/>
		<path fill-rule="evenodd" clip-rule="evenodd" fill="#FF386A" d="M50.5,87.7c3.4-3.3,6-0.8,8-0.8c2,0,4.6-2.5,8,0.8
			C61.3,90.3,54,89.1,50.5,87.7z"/>
		<path fill-rule="evenodd" clip-rule="evenodd" fill="#FFDECC" d="M86.7,73.7c-2.1-0.9-5.2,1.3-6.8,5.1c-1.6,3.7-1.1,7.5,1,8.4
			c2.1,0.9,5.2-1.3,6.8-5.1C89.3,78.4,88.9,74.6,86.7,73.7z"/>
		<path fill-rule="evenodd" clip-rule="evenodd" fill="#FFDECC" d="M30.2,73.7c2.1-0.9,5.2,1.3,6.8,5.1c1.6,3.7,1.1,7.5-1,8.4
			c-2.1,0.9-5.2-1.3-6.8-5.1C27.7,78.4,28.1,74.6,30.2,73.7z"/>
		<path fill-rule="evenodd" clip-rule="evenodd" fill="#4D1B02" d="M69.7,53.9c0.3,11.7,0.9,18.7,7.6,15.9c6.7-2.8,5.4,5,4.2,10.5
			c5.9-7.5,5.2-14.5,3.4-21.7c-2-7.9-12.2-19.9-21.8-19.7C57.9,38.4,50,39.1,41.6,45C27,55.5,31.9,78.9,35.8,81.6
			C32,60,41.4,64.4,47.8,53C49.9,48,69.4,41.7,69.7,53.9z"/>
		<g>
			<polygon fill-rule="evenodd" clip-rule="evenodd" fill="#FF386A" points="48.3,105.1 41,111.8 50.3,126.3 58.3,118.7 			"/>
			<polygon fill-rule="evenodd" clip-rule="evenodd" fill="#FF386A" points="68.7,105.1 76,112.1 66.3,126.3 58.3,118.7 			"/>
		</g>
		<rect x="57.5" y="118.8" fill-rule="evenodd" clip-rule="evenodd" fill="#FF386A" width="2.1" height="26"/>
		<path fill-rule="evenodd" clip-rule="evenodd" fill="#FF386A" d="M25.8,144.8c0.1-2,0.2-4.4,0.7-7.4c-0.9,2.9-1.5,5.3-2,7.4H25.8z
			"/>
		<path fill-rule="evenodd" clip-rule="evenodd" fill="#FF386A" d="M91.2,144.8c-0.1-2-0.2-4.4-0.7-7.4c0.9,2.9,1.5,5.3,2,7.4H91.2z
			"/>
	</g>
</g>
</svg>
